<?xml version="1.0" standalone="no"?>
<!DOCTYPE svg PUBLIC "-//W3C//DTD SVG 1.1//EN" "http://www.w3.org/Graphics/SVG/1.1/DTD/svg11.dtd" >
<svg xmlns="http://www.w3.org/2000/svg" xmlns:xlink="http://www.w3.org/1999/xlink" version="1.1">
<metadata></metadata>
<defs>
<font id="helvetica57-condensedroman" horiz-adv-x="909" >
<font-face units-per-em="2048" ascent="1638" descent="-410" />
<missing-glyph horiz-adv-x="491" />
<glyph horiz-adv-x="0" />
<glyph horiz-adv-x="682" />
<glyph unicode=" "  horiz-adv-x="491" />
<glyph unicode="&#x09;" horiz-adv-x="491" />
<glyph unicode="&#xa0;" horiz-adv-x="491" />
<glyph unicode="!" horiz-adv-x="528" d="M170 0h188v197h-188v-197zM170 1462l33 -1081h123l32 1081h-188z" />
<glyph unicode="&#x22;" horiz-adv-x="833" d="M178 942h135v520h-135v-520zM520 942h135v520h-135v-520z" />
<glyph unicode="#" horiz-adv-x="983" d="M47 420h168l-53 -420h135l53 420h217l-53 -420h135l53 420h187v135h-170l39 315h178v136h-160l51 415h-135l-51 -415h-217l51 415h-135l-51 -415h-197v-136h178l-39 -315h-184v-135zM367 555l39 315h217l-39 -315h-217z" />
<glyph unicode="$" horiz-adv-x="983" d="M43 446q0 -238 92 -352.5t309 -122.5v-192h86v192q190 10 300 119.5t110 304.5q0 55 -11 101t-26.5 79t-45.5 63t-55 48.5t-69.5 39t-74.5 31.5t-83 29l-45 15v502q189 -20 189 -250h180q-2 192 -93 290.5t-276 106.5v119h-86v-119q-180 -10 -281.5 -112t-101.5 -281 q0 -49 7.5 -91t23.5 -75.5t34.5 -60t48 -49.5t55.5 -39.5t65 -32.5t69.5 -27t75.5 -25l4 -2v-536q-128 14 -174.5 91.5t-46.5 235.5h-180zM250 1075q0 204 194 228v-474q-45 18 -77.5 37t-60.5 48t-42 69t-14 92zM530 119v508q108 -39 165 -96t57 -164q0 -103 -62.5 -171.5 t-159.5 -76.5z" />
<glyph unicode="%" horiz-adv-x="1554" d="M94 1057q0 -74 6 -129t23 -107t46 -85t77.5 -52.5t115.5 -19.5t116 19.5t78 52.5t46 85t23 107t6 129t-6 129t-23 107t-46 85t-78 52.5t-116 19.5t-115.5 -19.5t-77.5 -52.5t-46 -85t-23 -107t-6 -129zM242 1057q0 150 21 216t99 66q79 0 100 -66t21 -216t-21 -216 q-21 -67 -100 -67q-78 0 -99 67q-21 66 -21 216zM381 -29h143l635 1479h-143zM924 365q0 -74 6 -129t23 -107t46 -85t77.5 -53t115.5 -20t115.5 20t77.5 52.5t46 85t23 107.5t6 129t-6 129t-23 107t-46 85t-77.5 52.5t-115.5 19.5t-115.5 -19.5t-77.5 -52.5t-46 -85 t-23 -107t-6 -129zM1071 365q0 147 22 216q21 66 99 66t99 -66q22 -69 22 -216q0 -148 -22 -217q-21 -66 -99 -66t-99 66q-22 69 -22 217z" />
<glyph unicode="&#x26;" horiz-adv-x="1138" d="M51 377q0 -128 60.5 -221.5t161.5 -142.5q87 -42 212 -42q111 0 190 40q79 41 171 126l98 -137h195l-189 264q69 90 109 327q10 57 10 99h-160q-15 -177 -57 -284l-289 413l53 45q96 80 149 152q52 71 52 168q0 141 -80.5 209.5t-228.5 68.5q-128 0 -215.5 -81 t-87.5 -205q0 -72 26 -127q26 -56 80 -140l45 -73l-106 -80q-87 -68 -143 -164t-56 -215zM231 391q0 206 209 334l322 -465q-60 -69 -118 -105t-144 -36q-118 0 -193.5 76t-75.5 196zM365 1184q0 64 40 103.5t105 39.5t106 -39.5t41 -103.5t-29 -106q-23 -34 -102 -113 l-39 -37l-34 49q-2 3 -13.5 20t-14.5 22t-13 20.5t-13 22.5t-10.5 21.5t-10 24.5t-6.5 23.5t-5.5 26.5t-1.5 26z" />
<glyph unicode="'" horiz-adv-x="491" d="M178 942h135v520h-135v-520z" />
<glyph unicode="(" horiz-adv-x="493" d="M88 543q0 -262 82 -498.5t217 -421.5h98q-111 213 -168 433t-57 487q0 549 225 919h-98q-137 -187 -218 -420.5t-81 -498.5z" />
<glyph unicode=")" horiz-adv-x="493" d="M8 -377h98q137 187 218.5 421t81.5 499q0 262 -82.5 497.5t-217.5 421.5h-98q111 -214 168 -433t57 -486q0 -550 -225 -920z" />
<glyph unicode="*" horiz-adv-x="720" d="M35 1184l231 -70l-155 -192l102 -76l147 209l148 -209l102 76l-155 192l231 70l-45 119l-219 -84v243h-123v-243l-219 84z" />
<glyph unicode="+" horiz-adv-x="1228" d="M96 451h451v-451h135v451h451v135h-451v450h-135v-450h-451v-135z" />
<glyph unicode="," horiz-adv-x="491" d="M152 0h90v-49q0 -68 -19.5 -101t-70.5 -57v-96q108 28 148 109t40 233v178h-188v-217z" />
<glyph unicode="-" horiz-adv-x="720" d="M111 502h499v160h-499v-160z" />
<glyph unicode="." horiz-adv-x="491" d="M152 0h188v217h-188v-217z" />
<glyph unicode="/" horiz-adv-x="569" d="M-20 -29h135l475 1520h-135z" />
<glyph unicode="0" horiz-adv-x="983" d="M78 705q0 -92 3 -161.5t13 -150t27.5 -138.5t49 -114.5t74 -91.5t105.5 -56.5t142 -21.5q78 0 140 22t104.5 58t74 92.5t49.5 115.5t28.5 138.5t13.5 149t3 158.5q0 94 -2.5 163.5t-12.5 152t-27 140.5t-48 116t-74 93.5t-106 57.5t-143 22q-79 0 -141.5 -22.5 t-105 -58.5t-74 -94t-49 -117.5t-28 -140.5t-13.5 -151t-3 -161zM258 674v10.5v9.5v11v33q0 108 2 164t11 137t32 135.5t61 92.5q48 48 128 48q43 0 77.5 -12.5t58.5 -42.5t41.5 -56t27.5 -79t16.5 -84t9 -98.5t2.5 -95v-98.5v-44q0 -233 -12 -319q-21 -158 -93 -231 q-49 -49 -128 -49q-49 0 -87 20t-62.5 47t-41.5 79.5t-25.5 91.5t-12.5 110t-4.5 108t-0.5 112z" />
<glyph unicode="1" horiz-adv-x="983" d="M137 1090h309v-1090h172v1450h-122q-1 -57 -21 -99t-50.5 -67t-79.5 -41t-96 -22t-112 -9v-122z" />
<glyph unicode="2" horiz-adv-x="983" d="M86 0h811v160h-623q30 140 158 248l205 178q132 113 193 218t61 259q0 181 -102 284t-287 103q-209 0 -310.5 -119.5t-101.5 -341.5h180q0 314 230 314q103 0 157 -74t54 -187q0 -109 -47 -186q-46 -76 -146 -162l-119 -100q-143 -124 -227 -265q-86 -143 -86 -329z" />
<glyph unicode="3" horiz-adv-x="983" d="M80 375q0 -121 51 -212t140 -143q85 -49 221 -49q199 0 305 120.5t106 328.5q0 287 -268 338v4q104 25 164.5 107t60.5 204q0 179 -96 278t-277 99q-191 0 -288 -109.5t-97 -308.5h181q0 283 209 283q97 0 142.5 -65.5t45.5 -176.5q0 -117 -56.5 -186.5t-164.5 -69.5h-90 v-135h92q129 0 195.5 -72t66.5 -204q0 -299 -231 -299q-110 0 -171 83t-61 203h-180v-18z" />
<glyph unicode="4" horiz-adv-x="983" d="M61 350h525v-350h172v350h164v148h-164v952h-172l-525 -938v-162zM217 498l365 669h4v-669h-369z" />
<glyph unicode="5" horiz-adv-x="983" d="M82 373q0 -183 106 -292.5t291 -109.5q211 0 316.5 135t105.5 363q0 136 -38.5 241.5t-122 170.5t-203.5 65q-81 0 -147.5 -29t-106.5 -79l-4 4l57 420h510v159h-647l-80 -743l155 -8q0 32 59 86q62 55 146 55q85 0 141 -46.5t78.5 -117.5t22.5 -164q0 -77 -11 -140 t-36.5 -118.5t-74 -87t-116.5 -31.5q-108 0 -164.5 75.5t-56.5 191.5h-180z" />
<glyph unicode="6" horiz-adv-x="983" d="M72 659q0 -74 3.5 -136t11.5 -127t23.5 -117t37.5 -102t55 -86t75.5 -64t99 -42t124.5 -14q132 0 226 67t138.5 177t44.5 252q0 101 -23.5 184t-69 145t-118.5 96t-168 34q-92 0 -166 -47.5t-110 -114.5h-4v115q0 121 30 223.5t89 160.5q52 52 137 52q89 0 139.5 -59 t50.5 -154h181q0 160 -99 254t-268 94q-83 0 -149 -23.5t-111.5 -62.5t-79 -100.5t-52.5 -125t-30 -149t-14.5 -160.5t-3.5 -170zM272 442q0 336 230 336q229 0 229 -336q0 -69 -11.5 -126.5t-37 -106t-71.5 -76t-109 -27.5q-62 0 -108 28t-72 76.5t-38 106t-12 125.5z" />
<glyph unicode="7" horiz-adv-x="983" d="M78 1262h663q-214 -280 -344 -603q-136 -322 -176 -659h201q33 377 199 774q109 265 284 498v149h-827v-159z" />
<glyph unicode="8" horiz-adv-x="983" d="M76 399q0 -200 108 -314t308 -114t307.5 114t107.5 314q0 289 -256 373q105 43 158 114.5t53 194.5q0 174 -98 271.5t-272 97.5q-173 0 -272 -98t-99 -271q0 -123 53 -194.5t158 -114.5q-256 -84 -256 -373zM256 406q0 135 58.5 217t177.5 82q120 0 177.5 -81t57.5 -218 t-57.5 -218.5t-177.5 -81.5q-119 0 -177.5 82.5t-58.5 217.5zM301 1077q0 109 47.5 173.5t143.5 64.5q95 0 142.5 -65t47.5 -173q0 -106 -48 -171.5t-142 -65.5q-96 0 -143.5 65t-47.5 172z" />
<glyph unicode="9" horiz-adv-x="983" d="M72 954q0 -135 40 -236.5t127 -161.5t212 -60q92 0 166 47t110 114h4v-114q0 -120 -30 -222t-89 -161q-54 -54 -137 -54q-88 0 -139 60t-51 153h-181q0 -160 99 -254t268 -94q65 0 120 14.5t96.5 39t74.5 63.5t56 81.5t40 99t27 111t16 122.5t8 127.5t2 132.5 q0 74 -3.5 136t-11.5 127t-23.5 117t-37.5 102t-55 86t-75.5 64t-99 42t-124.5 14q-132 0 -226 -67t-138.5 -177t-44.5 -252zM252 979q0 68 12 126t37.5 106.5t71.5 76t108 27.5t108.5 -27.5t72 -76t37.5 -106.5t12 -126q0 -336 -230 -336q-229 0 -229 336z" />
<glyph unicode=":" horiz-adv-x="491" d="M152 0h188v217h-188v-217zM152 819h188v217h-188v-217z" />
<glyph unicode=";" horiz-adv-x="491" d="M152 0h90v-49q0 -68 -19.5 -101t-70.5 -57v-96q108 28 148 109t40 233v178h-188v-217zM152 819h188v217h-188v-217z" />
<glyph unicode="&#x3c;" horiz-adv-x="1228" d="M96 457l1037 -473v135l-877 399l877 400v135l-1037 -473v-123z" />
<glyph unicode="=" horiz-adv-x="1228" d="M96 242h1037v135h-1037v-135zM96 659h1037v136h-1037v-136z" />
<glyph unicode="&#x3e;" horiz-adv-x="1228" d="M96 -16l1037 473v123l-1037 473v-135l877 -400l-877 -399v-135z" />
<glyph unicode="?" d="M72 1032h172q0 299 215 299q93 0 145.5 -64t52.5 -163q0 -37 -2.5 -65.5t-13 -56t-15.5 -41.5t-26.5 -41.5t-28 -35t-36.5 -41.5q-15 -18 -46 -52.5t-47 -54.5t-36.5 -51.5t-32 -65.5t-16.5 -74q-7 -55 -7 -144h160v39q0 36 7 69.5t13.5 54t27 51.5t28 40.5t37 43.5 t34.5 40q85 85 133 171t48 204q0 174 -105 279.5t-280 105.5q-184 0 -282.5 -124t-98.5 -323zM338 0h188v197h-188v-197z" />
<glyph unicode="@" horiz-adv-x="1638" d="M59 731q0 -164 61 -300t162 -237q223 -223 537 -223q241 0 414.5 92.5t269.5 258.5h-129q-165 -228 -555 -228q-209 0 -358.5 107.5t-218.5 277.5q-47 118 -47 252q0 212 105.5 365t274.5 224q114 48 244 48q205 0 356.5 -83t221.5 -226q47 -97 47 -209 q0 -135 -59.5 -245t-152.5 -165q-62 -37 -130 -37q-60 0 -60 54t19 92l172 577h-115l-45 -129h-4q-59 168 -233 168q-87 0 -162 -31t-129 -84t-92.5 -116t-62.5 -136q-34 -102 -34 -210q0 -127 84.5 -217t206.5 -90q85 0 142.5 30.5t113.5 89.5h4q15 -120 144 -120 q194 0 356 158q77 76 124.5 183.5t47.5 235.5q0 276 -213 455q-99 84 -239 131t-308 47q-164 0 -300 -60.5t-237 -161.5t-162 -237t-61 -301zM492 600q0 126 60 235.5t148 165.5q64 41 136 41q71 0 118 -63t47 -141q0 -132 -89 -280q-94 -155 -228 -155q-83 0 -137.5 56.5 t-54.5 140.5z" />
<glyph unicode="A" horiz-adv-x="1024" d="M-16 0h188l109 401h467l104 -401h188l-393 1462h-241zM317 549l203 706h4l187 -706h-394z" />
<glyph unicode="B" horiz-adv-x="1062" d="M119 0h397q235 0 354 99.5t119 318.5q0 146 -67.5 238t-192.5 122v4q92 27 152.5 111.5t60.5 193.5q0 182 -97.5 278.5t-277.5 96.5h-448v-1462zM299 147v549h215q136 0 211.5 -71t75.5 -207q0 -126 -65.5 -198.5t-190.5 -72.5h-246zM299 831v484h203q252 0 252 -240 q0 -122 -64 -183t-184 -61h-207z" />
<glyph unicode="C" horiz-adv-x="1062" d="M98 731q0 -109 7 -197t25.5 -178.5t52.5 -157t85 -119.5t127 -80.5t174 -27.5q113 0 198 40.5t136 115t78 167t33 208.5h-189q-2 -66 -8.5 -118t-24 -103.5t-45 -85.5t-73 -55t-105.5 -21q-45 0 -82.5 12.5t-65 31.5t-49 52.5t-35.5 64.5t-23.5 79.5t-15 85.5t-8 95 t-3 94.5t-0.5 96.5q0 85 1.5 141t9 129t21.5 122t40 96.5t63 77.5q56 46 147 46q235 0 244 -307h188q-6 225 -110 340t-322 115q-83 0 -150.5 -21.5t-116 -59t-85 -94t-59 -119t-36.5 -142t-19 -156.5t-5 -168z" />
<glyph unicode="D" horiz-adv-x="1138" d="M137 0h410q115 0 202.5 39t141.5 104t88.5 161t47.5 199t13 228q0 98 -5.5 177t-20.5 156.5t-39.5 136t-63.5 109.5t-92.5 83t-126.5 50.5t-164 18.5h-391v-1462zM317 147v1168h189q66 0 118 -16.5t88 -43.5t62 -71.5t41 -90.5t23.5 -110t11 -121t2.5 -133 q0 -69 -3.5 -126.5t-13 -119t-25.5 -109.5t-42.5 -92t-62.5 -72.5t-86.5 -45.5t-112.5 -17h-189z" />
<glyph unicode="E" horiz-adv-x="948" d="M119 0h780v160h-600v524h543v160h-543v459h575v159h-755v-1462z" />
<glyph unicode="F" d="M119 0h180v684h543v160h-543v459h575v159h-755v-1462z" />
<glyph unicode="G" horiz-adv-x="1099" d="M98 731q0 -90 4.5 -165t17 -155.5t33 -143t55 -119.5t81 -95t112 -60t146.5 -22q115 0 199.5 65t115.5 163h4v-199h135v760h-452v-148h289q0 -164 -26 -274t-99 -172q-56 -47 -144 -47q-45 0 -82.5 12.5t-65 31.5t-49 52.5t-35.5 64.5t-23.5 79.5t-15 85.5t-8 95t-3 94.5 t-0.5 96.5q0 85 1.5 141t9 129t21.5 122t40 96.5t63 77.5q56 46 147 46q230 0 244 -286h188q-8 206 -114.5 320t-317.5 114q-83 0 -150.5 -21.5t-116 -59t-85 -94t-59 -119t-36.5 -142t-19 -156.5t-5 -168z" />
<glyph unicode="H" horiz-adv-x="1099" d="M119 0h180v705h502v-705h180v1462h-180v-598h-502v598h-180v-1462z" />
<glyph unicode="I" horiz-adv-x="417" d="M119 0h180v1462h-180v-1462z" />
<glyph unicode="J" horiz-adv-x="872" d="M45 305q0 -155 91 -244.5t251 -89.5q201 0 284 113t83 336v1042h-181v-1036q0 -65 -3 -106t-13.5 -83.5t-30.5 -65.5t-55 -37.5t-86 -14.5q-168 0 -168 200v107h-172v-121z" />
<glyph unicode="K" horiz-adv-x="1024" d="M119 0h180v498l152 207l395 -705h201l-480 852l443 610h-201l-506 -708h-4v708h-180v-1462z" />
<glyph unicode="L" d="M119 0h774v160h-594v1302h-180v-1462z" />
<glyph unicode="M" horiz-adv-x="1441" d="M123 0h180v1278h4l324 -1278h180l324 1278h4v-1278h180v1462h-303l-293 -1159h-4l-293 1159h-303v-1462z" />
<glyph unicode="N" horiz-adv-x="1138" d="M119 0h180v1184h4l469 -1184h248v1462h-180v-1220h-4l-484 1220h-233v-1462z" />
<glyph unicode="O" horiz-adv-x="1138" d="M98 731q0 -125 10.5 -224t35.5 -192t72 -164t115 -116q96 -64 238 -64q83 0 150.5 21.5t116 59t85 94t59 119t36.5 142t19 156.5t5 168q0 260 -50.5 434.5t-181.5 261.5q-96 64 -239 64q-83 0 -150.5 -21.5t-116 -59t-85 -94t-59 -119t-36.5 -142t-19 -156.5t-5 -168z M287 731q0 85 1.5 141t9 129t21.5 122t40 96.5t63 77.5q56 46 147 46q45 0 82.5 -12.5t65 -31.5t49 -52.5t35.5 -64.5t24 -79.5t15 -86t8 -94.5t3.5 -94.5t0.5 -96.5q0 -85 -1.5 -141t-9 -129t-21.5 -122t-40 -96.5t-63 -77.5q-56 -46 -148 -46q-45 0 -82.5 12.5t-65 31.5 t-49 52.5t-35.5 64.5t-23.5 79.5t-15 85.5t-8 95t-3 94.5t-0.5 96.5z" />
<glyph unicode="P" horiz-adv-x="985" d="M119 0h180v618h223q194 0 308 114t114 310q0 179 -80 285t-229 126q-67 9 -143 9h-373v-1462zM299 766v549h203q126 0 190 -68t64 -196t-64 -206.5t-178 -78.5h-215z" />
<glyph unicode="Q" horiz-adv-x="1138" d="M98 731q0 -125 10.5 -224t35.5 -192t72 -164t115 -116q96 -64 238 -64q152 0 252 74l148 -133l100 106l-147 136q118 178 118 577q0 260 -50.5 434.5t-181.5 261.5q-96 64 -239 64q-83 0 -150.5 -21.5t-116 -59t-85 -94t-59 -119t-36.5 -142t-19 -156.5t-5 -168zM287 731 q0 85 1.5 141t9 129t21.5 122t40 96.5t63 77.5q56 46 147 46q45 0 82.5 -12.5t65 -31.5t49 -52.5t35.5 -64.5t24 -79.5t15 -86t8 -94.5t3.5 -94.5t0.5 -96.5q0 -162 -10.5 -270.5t-44.5 -192.5l-135 123l-101 -110l141 -127q-53 -35 -133 -35q-45 0 -82.5 12.5t-65 31.5 t-49 52.5t-35.5 64.5t-23.5 79.5t-15 85.5t-8 95t-3 94.5t-0.5 96.5z" />
<glyph unicode="R" horiz-adv-x="1062" d="M119 0h180v651h244q110 0 159 -50.5t58 -162.5l12 -227q10 -172 49 -211h217q-44 28 -58 76.5t-19 152.5l-13 250q-6 99 -61.5 166.5t-145.5 77.5v4q111 27 168.5 125.5t57.5 243.5q0 172 -100.5 269t-274.5 97h-473v-1462zM299 799v516h215q120 0 192 -61t72 -173 q0 -250 -195 -276q-46 -6 -106 -6h-178z" />
<glyph unicode="S" horiz-adv-x="1024" d="M63 459q0 -253 101 -370.5t342 -117.5q213 0 334 112.5t121 322.5q0 70 -14.5 125.5t-45 95t-63.5 67.5t-85 51.5t-93 38.5t-103.5 36.5t-102.5 37.5q-86 35 -135 92.5t-49 155.5q0 114 63.5 175.5t178.5 61.5q119 0 173 -66.5t54 -193.5h181q-2 204 -103.5 306 t-306.5 102q-203 0 -315.5 -105.5t-112.5 -298.5q0 -61 12.5 -112t32.5 -87t53.5 -67.5t65.5 -51.5t79 -41t84 -33.5t90.5 -31.5t89.5 -34q183 -75 183 -252q0 -112 -72 -185t-182 -73q-82 0 -136.5 21.5t-84 67t-41.5 105t-12 146.5h-181z" />
<glyph unicode="T" horiz-adv-x="948" d="M16 1303h367v-1303h180v1303h369v159h-916v-159z" />
<glyph unicode="U" horiz-adv-x="1062" d="M102 434q0 -463 428 -463q209 0 320 123t111 340v1028h-181v-1028q0 -161 -54.5 -238t-195.5 -77q-136 0 -191.5 78t-55.5 237v1028h-181v-1028z" />
<glyph unicode="V" horiz-adv-x="946" d="M-4 1462l356 -1462h230l368 1462h-188l-287 -1255h-4l-287 1255h-188z" />
<glyph unicode="W" horiz-adv-x="1478" d="M16 1462l291 -1462h219l211 1184h4l201 -1184h219l301 1462h-180l-223 -1196h-4l-207 1196h-217l-207 -1196h-4l-223 1196h-181z" />
<glyph unicode="X" horiz-adv-x="985" d="M4 0h189l296 586l291 -586h201l-389 743l364 719h-188l-268 -547l-267 547h-200l360 -719z" />
<glyph unicode="Y" horiz-adv-x="946" d="M-4 1462l387 -889v-573h180v573l387 889h-188l-289 -684l-278 684h-199z" />
<glyph unicode="Z" horiz-adv-x="948" d="M47 0h854v160h-665l657 1136v166h-809v-159h621l-658 -1151v-152z" />
<glyph unicode="[" horiz-adv-x="530" d="M160 -377h366v135h-207v1569h207v135h-366v-1839z" />
<glyph unicode="\" horiz-adv-x="569" d="M-20 1491l475 -1520h135l-475 1520h-135z" />
<glyph unicode="]" horiz-adv-x="530" d="M4 -242v-135h367v1839h-367v-135h207v-1569h-207z" />
<glyph unicode="^" horiz-adv-x="1228" d="M96 535h135l383 739l383 -739h136l-469 886h-99z" />
<glyph unicode="_" horiz-adv-x="1024" d="M0 -154v-102h1024v102h-1024z" />
<glyph unicode="`" horiz-adv-x="417" d="M-33 1540l221 -291h123l-143 291h-201z" />
<glyph unicode="a" d="M59 291q0 -153 75.5 -236.5t223.5 -83.5q84 0 156 46t109 112h4q3 -76 39 -108.5t116 -32.5q47 0 99 10h2v123q-14 -10 -41 -10q-34 0 -44 20.5t-10 67.5v612q0 169 -78.5 242t-254.5 73q-194 0 -281.5 -85t-87.5 -275h172v10q0 101 45.5 158t142.5 57q177 0 177 -162 q0 -61 -11 -90.5t-34 -43t-80 -31.5l-232 -70q-207 -61 -207 -303zM240 295q0 33 5.5 59.5t12 45t23 35t28 26t39.5 21t43.5 17t52.5 17.5q4 1 23.5 7t24 7.5t20.5 7t21.5 7.5t18 7.5t18.5 9.5t15.5 10t16.5 12.5t14 13.5v-283q0 -83 -68 -146t-153 -63q-155 0 -155 189z " />
<glyph unicode="b" horiz-adv-x="948" d="M113 0h163v135h5q18 -67 86 -115.5t151 -48.5q81 0 144.5 33.5t103 88t65.5 131t36 156t10 169.5q0 393 -162 523q-67 54 -172 54q-87 0 -156.5 -43.5t-97.5 -109.5h-4v489h-172v-1462zM274 549q0 143 24 242.5t88 151.5q44 36 110 36q112 0 156 -109t44 -321 q0 -60 -2.5 -106t-9 -98.5t-20.5 -90t-35.5 -70t-55 -49t-77.5 -16.5q-48 0 -85.5 17t-61 50t-39 71t-23 90.5t-10.5 98t-3 103.5z" />
<glyph unicode="c" horiz-adv-x="872" d="M66 535q0 -104 10.5 -186t36.5 -154.5t68.5 -120.5t109 -75.5t155.5 -27.5q172 0 266.5 114.5t94.5 295.5h-172q0 -56 -8.5 -102.5t-28 -87t-56 -63t-87.5 -22.5q-47 0 -82.5 17.5t-58 51.5t-37 72.5t-21 92t-8.5 97t-2 100.5q0 274 65 374q27 42 61 61t89 19 q87 0 130.5 -64t43.5 -163h172q0 169 -90.5 265.5t-259.5 96.5q-67 0 -122 -16.5t-95 -45t-70.5 -71.5t-50 -92t-31.5 -110t-17 -122.5t-5 -133.5z" />
<glyph unicode="d" horiz-adv-x="948" d="M72 549q0 -578 358 -578q83 0 151.5 48.5t86.5 115.5h4v-135h164v1462h-172v-489h-5q-26 64 -93 108.5t-148 44.5q-60 0 -110 -17t-85 -46.5t-62 -73t-44 -92t-27 -108.5t-14 -117t-4 -123zM252 549q0 212 44 321t157 109q57 0 98.5 -26.5t64.5 -66.5t36.5 -100.5 t17.5 -114.5t4 -122q0 -64 -2 -107.5t-8.5 -98.5t-21.5 -90.5t-38.5 -68.5t-61.5 -49t-89 -16q-113 0 -157 108q-44 109 -44 322z" />
<glyph unicode="e" d="M76 535q0 -104 10.5 -186t37 -154.5t69 -120.5t109 -75.5t155.5 -27.5q142 0 230 74.5t121 198.5q17 62 17 116h-172q0 -112 -45 -183t-141 -71q-42 0 -75 13.5t-55 34t-37.5 55t-24 67t-13 80.5t-5.5 83.5t-1 88.5h578v70q0 96 -9 170.5t-33.5 144t-64.5 114.5t-106 72 t-154 27q-67 0 -122 -16.5t-95 -45t-70.5 -71.5t-50 -92t-31.5 -110t-17 -122.5t-5 -133.5zM262 664v41q0 76 18.5 138t65.5 105t117 43q100 0 145 -74.5t45 -193.5v-59h-391z" />
<glyph unicode="f" horiz-adv-x="530" d="M4 963h160v-963h172v963h188v135h-188v129q0 104 110 104h80v148h-125q-123 0 -180 -62.5t-57 -189.5v-129h-160v-135z" />
<glyph unicode="g" horiz-adv-x="948" d="M72 549q0 -354 158 -489q70 -60 182 -60q86 0 153.5 41t93.5 106h5v-143q0 -126 -47.5 -186t-165.5 -60q-77 0 -124 35.5t-53 104.5h-172q15 -140 109 -207.5t252 -67.5q373 0 373 447v1028h-164v-140h-4q-18 69 -86.5 118.5t-151.5 49.5q-358 0 -358 -577zM252 549 q0 212 44 321t157 109q57 0 98.5 -26.5t64.5 -66.5t36.5 -100.5t17.5 -114.5t4 -122q0 -57 -3 -101t-10.5 -93t-23.5 -84t-39.5 -64.5t-61 -44.5t-85.5 -15q-43 0 -76.5 16.5t-54.5 48t-35.5 68t-21 85.5t-9 90.5t-2.5 93.5z" />
<glyph unicode="h" horiz-adv-x="948" d="M113 0h172v758q0 99 61.5 160t155.5 61q92 0 127 -57t35 -164v-758h172v778q0 176 -61.5 262t-221.5 86q-81 0 -157.5 -46.5t-106.5 -106.5h-4v489h-172v-1462z" />
<glyph unicode="i" horiz-adv-x="417" d="M123 0h172v1098h-172v-1098zM123 1266h172v196h-172v-196z" />
<glyph unicode="j" horiz-adv-x="417" d="M-47 -223v-148l27 -2q31 -4 53 -4q136 0 199 66.5t63 204.5v1204h-172v-1143q0 -43 -1 -64t-6 -49t-16.5 -40.5t-32 -21.5t-51.5 -9q-18 0 -43 4zM123 1266h172v196h-172v-196z" />
<glyph unicode="k" d="M113 0h172v371l141 172l305 -543h201l-391 684l333 414h-200l-385 -506h-4v870h-172v-1462z" />
<glyph unicode="l" horiz-adv-x="417" d="M123 0h172v1462h-172v-1462z" />
<glyph unicode="m" horiz-adv-x="1478" d="M129 0h172v758q0 101 55 161t150 60q84 0 115.5 -58.5t31.5 -162.5v-758h172v758q0 101 55 161t150 60q84 0 116 -58.5t32 -162.5v-758h172v778q0 176 -63.5 262t-225.5 86q-86 0 -154.5 -50.5t-105.5 -123.5q-26 88 -81.5 131t-156.5 43q-90 0 -163 -44.5t-103 -112.5 h-4v129h-164v-1098z" />
<glyph unicode="n" horiz-adv-x="948" d="M113 0h172v758q0 99 61.5 160t155.5 61q92 0 127 -57t35 -164v-758h172v778q0 176 -63.5 262t-225.5 86q-90 0 -163 -44.5t-103 -112.5h-5v129h-163v-1098z" />
<glyph unicode="o" d="M59 549q0 -101 10.5 -182.5t38 -157t71.5 -126.5t114 -81.5t162 -30.5t162 30.5t113.5 81.5t71 126.5t38 157.5t10.5 182q0 101 -10.5 182.5t-38 157t-71 126.5t-113.5 81t-162 30t-162 -30t-114 -81.5t-71.5 -126.5t-38 -157t-10.5 -182zM240 549q0 59 2.5 103.5t9 99.5 t21 94t37 74t58.5 53t83 18q42 0 75.5 -14t56 -37t39 -58.5t26 -71t14.5 -84t6.5 -87.5t1.5 -90t-1.5 -90.5t-6.5 -87.5t-14.5 -83.5t-26 -71.5t-39 -59t-56 -37t-75.5 -14q-47 0 -83 18t-58.5 53t-37 74t-21 94.5t-9 100t-2.5 103.5z" />
<glyph unicode="p" horiz-adv-x="948" d="M113 -360h172v485h4q27 -65 89 -109.5t140 -44.5q82 0 145.5 35.5t103 93.5t65 138t35.5 160.5t10 170.5q0 94 -10.5 173.5t-36 152t-65.5 122.5t-103 79.5t-144 29.5q-83 0 -151 -48t-86 -115h-5v135h-163v-1458zM274 549q0 54 1.5 92t6.5 86t13.5 81.5t25 68t40 55.5 t57.5 34t78 13q43 0 76.5 -15.5t55 -45.5t35.5 -66t21 -86t9.5 -94.5t2.5 -102.5q0 -227 -44 -339q-44 -111 -156 -111q-57 0 -98.5 26.5t-64.5 66.5t-37 100.5t-18 114.5t-4 122z" />
<glyph unicode="q" horiz-adv-x="948" d="M72 569q0 -421 185 -549q70 -49 173 -49q78 0 140 44.5t89 109.5h5v-485h172v1458h-164v-135h-4q-18 67 -86.5 115t-151.5 48q-358 0 -358 -557zM252 569q0 70 3.5 123t16 110t33.5 93.5t58.5 60t89.5 23.5q51 0 89 -16t61.5 -49t38.5 -68.5t21.5 -90.5t8.5 -98.5 t2 -107.5q0 -143 -24 -242.5t-88 -151.5q-44 -36 -109 -36q-113 0 -157 111q-44 112 -44 339z" />
<glyph unicode="r" horiz-adv-x="606" d="M113 0h172v694q0 89 41.5 154t109.5 91q39 15 74 15q17 0 48 -4t44 -4v168q-24 12 -76 12q-88 0 -141 -51t-96 -141h-4v164h-172v-1098z" />
<glyph unicode="s" horiz-adv-x="833" d="M51 360q0 -194 91.5 -291.5t285.5 -97.5q164 0 259 90.5t95 253.5q0 37 -5.5 68.5t-14 56.5t-25 47.5t-31 38.5t-39.5 31.5t-43.5 25.5t-50 21.5t-52 18.5t-56.5 18q-115 35 -168 71t-53 111q0 84 46.5 126t131.5 42q92 0 127 -53t35 -162h172q0 177 -79.5 263.5 t-254.5 86.5q-155 0 -252.5 -79.5t-97.5 -223.5q0 -202 153 -267q26 -11 127 -44.5t158.5 -65t81.5 -74.5q18 -34 18 -83q0 -85 -49.5 -134t-132.5 -49q-110 0 -157.5 65.5t-47.5 188.5h-172z" />
<glyph unicode="t" horiz-adv-x="530" d="M4 963h160v-758q0 -119 49.5 -168t171.5 -49q72 0 139 12v141q-11 0 -38 -3t-37 -3q-65 0 -89 27.5t-24 95.5v705h190v135h-190v319h-172v-319h-160v-135z" />
<glyph unicode="u" horiz-adv-x="948" d="M113 319q0 -176 63 -262t225 -86q88 0 162 45.5t105 112.5h4v-129h164v1098h-172v-758q0 -97 -62.5 -159t-155.5 -62q-92 0 -126.5 57t-34.5 164v758h-172v-779z" />
<glyph unicode="v" horiz-adv-x="831" d="M20 1098l297 -1098h197l297 1098h-188l-205 -881h-4l-205 881h-189z" />
<glyph unicode="w" horiz-adv-x="1327" d="M20 1098l256 -1098h201l185 897h4l192 -897h189l260 1098h-181l-170 -897h-4l-182 897h-203l-186 -897h-4l-176 897h-181z" />
<glyph unicode="x" horiz-adv-x="831" d="M12 0h189l211 434l219 -434h188l-297 571l287 527h-188l-201 -391l-199 391h-188l280 -527z" />
<glyph unicode="y" horiz-adv-x="831" d="M20 1098l324 -1121l-33 -96q-16 -51 -47.5 -78.5t-87.5 -27.5q-62 0 -100 6v-135q19 0 61.5 -3t63.5 -3q58 0 103 15.5t74 38.5t52.5 63.5t36 77t27.5 91.5l317 1172h-188l-193 -881h-4l-217 881h-189z" />
<glyph unicode="z" horiz-adv-x="796" d="M55 0h682v147h-487l491 807v144h-661v-148h473l-498 -815v-135z" />
<glyph unicode="{" horiz-adv-x="530" d="M4 481q77 0 116.5 -65t39.5 -162v-365q0 -127 55 -196.5t166 -69.5h145v135h-104q-61 0 -82 43.5t-21 124.5v353q0 105 -48 176t-132 86v4q53 6 95.5 46.5t64.5 95.5q20 47 20 120v352q0 82 21 125t82 43h104v135h-145q-111 0 -166 -69.5t-55 -196.5v-365 q0 -96 -40 -161.5t-116 -65.5v-123z" />
<glyph unicode="|" horiz-adv-x="454" d="M160 -29h135v1520h-135v-1520z" />
<glyph unicode="}" horiz-adv-x="530" d="M4 -242v-135h146q111 0 166 69.5t55 196.5v365q0 97 39 162t116 65v123q-76 0 -115.5 65.5t-39.5 161.5v365q0 127 -55 196.5t-166 69.5h-146v-135h105q43 0 66.5 -24t29.5 -57t6 -87v-352q0 -104 48.5 -175.5t131.5 -86.5v-4q-53 -6 -95 -47t-65 -96q-20 -47 -20 -119 v-353q0 -54 -6 -87t-29.5 -57t-66.5 -24h-105z" />
<glyph unicode="~" horiz-adv-x="1228" d="M115 473l86 -94q21 30 37.5 50.5t43 46t57 39t64.5 13.5q24 0 47 -5t50.5 -19t40.5 -21t45.5 -28t36.5 -23q67 -37 102.5 -48t110.5 -11q86 0 153 53q62 49 125 139l-86 92q-21 -30 -37.5 -50.5t-43 -46t-57.5 -39t-65 -13.5q-40 0 -76 15t-81 43.5t-62 37.5 q-68 38 -103.5 49t-109.5 11q-87 0 -152 -53t-126 -138z" />
<glyph unicode="&#xa1;" horiz-adv-x="528" d="M170 -360h188l-32 1081h-123zM170 905h188v197h-188v-197z" />
<glyph unicode="&#xa2;" horiz-adv-x="983" d="M121 535q0 -125 16 -220t53.5 -173t106.5 -121.5t168 -49.5v-174h86v174q149 15 230 127.5t81 282.5h-172q0 -242 -139 -275v885q69 -11 104 -74t35 -153h172q0 161 -79.5 256.5t-231.5 105.5v144h-86v-144q-81 -8 -142.5 -43.5t-99.5 -88t-61 -128.5t-32 -155t-9 -176z M301 537q0 71 2 121.5t11.5 113t26.5 103t48.5 73.5t75.5 43v-885q-44 9 -75 40.5t-48 71t-26.5 99t-12 107.5t-2.5 113z" />
<glyph unicode="&#xa3;" horiz-adv-x="983" d="M39 121l78 -133l96 45q48 22 100 22q65 0 174 -42t175 -42q134 0 282 103l-76 137q-87 -50 -128 -65q-42 -15 -91 -15q-57 0 -133 31q-2 2 -4 2q-62 26 -121 26q-14 0 -27.5 -1.5t-28 -5.5t-23.5 -6.5t-25.5 -10t-21.5 -9.5t-25 -12t-23 -12l-4 4q129 109 193 190 q67 85 67 193q0 69 -35 139h291v123h-336q-59 120 -84 182q-30 75 -30 136q0 101 62.5 158t168.5 57q119 0 176 -75.5t57 -205.5h172q0 199 -106 307.5t-299 108.5q-179 0 -295.5 -99.5t-116.5 -269.5q0 -99 68 -235l33 -64h-144v-123h195q43 -62 43 -157q0 -115 -66 -198 q-68 -85 -188 -183z" />
<glyph unicode="&#xa4;" horiz-adv-x="983" d="M37 342l86 -86l96 96q124 -92 273 -92q154 0 270 94l98 -98l86 86l-98 98q94 116 94 271q0 152 -92 270l96 96l-88 88l-96 -96q-119 92 -270 92q-153 0 -271 -92l-96 96l-88 -88l96 -96q-92 -122 -92 -270q0 -149 92 -273zM188 711q0 130 88 222.5t216 92.5 q127 0 215 -92t88 -223t-88 -223.5t-215 -92.5t-215.5 92.5t-88.5 223.5z" />
<glyph unicode="&#xa5;" horiz-adv-x="983" d="M18 1421l316 -694h-225v-123h280l21 -45v-123h-301v-123h301v-313h172v313h301v123h-301v123l20 45h281v123h-226l308 694h-181l-288 -663l-279 663h-199z" />
<glyph unicode="&#xa6;" horiz-adv-x="454" d="M160 -29h135v602h-135v-602zM160 889h135v602h-135v-602z" />
<glyph unicode="&#xa7;" horiz-adv-x="987" d="M61 655q0 -51 19 -97.5t54.5 -84t69 -64t77.5 -53.5l231 -143q78 -49 124 -100q46 -50 46 -119q0 -80 -46.5 -127t-129.5 -47q-96 0 -149.5 60.5t-53.5 160.5h-172q0 -168 100 -262t275 -94q151 0 253.5 87t102.5 230q0 85 -32 152.5t-87 101.5q183 124 183 301 q0 110 -62 181t-184 147l-205 123q-79 50 -121 92q-43 43 -43 102q0 68 50 111t124 43q78 0 129.5 -47.5t51.5 -124.5h180v2q-26 305 -361 305q-95 0 -175 -34.5t-129.5 -104t-49.5 -160.5q0 -76 38 -143t93 -103q-102 -66 -151 -127q-50 -62 -50 -164zM233 678q0 63 36 105 t96 87q3 3 6 4l225 -139q71 -42 114.5 -91t43.5 -118q0 -123 -119 -194q-113 79 -258 170q-68 41 -106 82t-38 94z" />
<glyph unicode="&#xa8;" horiz-adv-x="417" d="M-37 1298h160v207h-160v-207zM295 1298h160v207h-160v-207z" />
<glyph unicode="&#xa9;" horiz-adv-x="1638" d="M59 731q0 -164 61 -300t162 -237q223 -223 537 -223q164 0 300.5 61t237.5 162q222 222 222 537q0 164 -60.5 300.5t-161.5 237.5t-237 161.5t-301 60.5q-164 0 -300 -60.5t-237 -161.5t-162 -237t-61 -301zM195 731q0 210 107.5 363t275.5 225q113 49 241 49 q140 0 258.5 -55t196 -140.5t122.5 -194.5q48 -115 48 -247q0 -209 -107.5 -362.5t-275.5 -225.5q-113 -49 -242 -49q-256 0 -441 187q-183 187 -183 450zM383 725q0 -211 121 -341t327 -130q165 0 275 85.5t129 231.5h-123q-17 -86 -96 -140t-185 -54q-140 0 -226.5 100 t-86.5 248t86.5 248t226.5 100q106 0 185 -54t96 -140h123q-19 147 -128.5 232t-275.5 85q-206 0 -327 -130t-121 -341z" />
<glyph unicode="&#xaa;" horiz-adv-x="591" d="M16 942q0 -88 53 -139t142 -51q60 0 108 26t72 68h4q2 -46 29.5 -70t73.5 -24q53 0 77 6v86q-12 -6 -26 -6q-22 0 -28.5 13t-6.5 42v360q0 106 -51.5 151.5t-165.5 45.5q-137 0 -198.5 -50t-61.5 -175h123v8q0 57 31 88t90 31q110 0 110 -88q0 -48 -14.5 -63t-63.5 -30 l-149 -41q-148 -41 -148 -188zM152 950q0 33 11.5 55.5t35 36t45 21.5t56 17.5t53.5 16.5q24 9 38 23v-157q0 -44 -47.5 -78.5t-97.5 -34.5q-46 0 -70 27t-24 73z" />
<glyph unicode="&#xab;" horiz-adv-x="796" d="M100 502l291 -293v180l-192 193l192 192v180l-291 -292v-160zM406 502l290 -293v180l-192 193l192 192v180l-290 -292v-160z" />
<glyph unicode="&#xac;" horiz-adv-x="1228" d="M96 659h901v-442h136v578h-1037v-136z" />
<glyph unicode="&#xad;" horiz-adv-x="720" d="M111 502h499v160h-499v-160z" />
<glyph unicode="&#xae;" horiz-adv-x="1638" d="M59 731q0 -164 61 -300t162 -237q223 -223 537 -223q164 0 300.5 61t237.5 162q222 222 222 537q0 164 -60.5 300.5t-161.5 237.5t-237 161.5t-301 60.5q-164 0 -300 -60.5t-237 -161.5t-162 -237t-61 -301zM195 731q0 210 107.5 363t275.5 225q113 49 241 49 q140 0 258.5 -55t196 -140.5t122.5 -194.5q48 -115 48 -247q0 -209 -107.5 -362.5t-275.5 -225.5q-113 -49 -242 -49q-256 0 -441 187q-183 187 -183 450zM516 283h135v372h146l245 -372h136l-254 383q111 13 175 73.5t64 171.5q0 260 -303 260h-344v-888zM651 778v271h185 q62 0 101 -9t65 -39t26 -83q0 -37 -12.5 -63.5t-31 -41t-51 -23t-62.5 -10.5t-74 -2h-146z" />
<glyph unicode="&#xaf;" horiz-adv-x="417" d="M-61 1341h540v111h-540v-111z" />
<glyph unicode="&#xb0;" horiz-adv-x="819" d="M104 1145q0 -132 87 -218.5t219 -86.5t218.5 86.5t86.5 218.5t-86.5 218.5t-218.5 86.5t-219 -86.5t-87 -218.5zM215 1145q0 79 57.5 136.5t137.5 57.5t137 -57.5t57 -136.5q0 -80 -57.5 -137.5t-136.5 -57.5q-80 0 -137.5 58t-57.5 137z" />
<glyph unicode="&#xb1;" horiz-adv-x="1228" d="M96 0h1037v135h-1037v-135zM96 604h451v-297h135v297h451v135h-451v297h-135v-297h-451v-135z" />
<glyph unicode="&#xb2;" horiz-adv-x="638" d="M41 1171h147q0 156 127 156q65 0 100.5 -31t35.5 -92q0 -39 -8.5 -70t-29.5 -57t-38 -41.5t-51 -42.5l-76 -61q-94 -78 -150 -162q-55 -83 -55 -197h535v123h-369q24 72 96 129l127 103q87 68 127 131q39 61 39 158q0 113 -75 173t-197 60q-285 0 -285 -279z" />
<glyph unicode="&#xb3;" horiz-adv-x="638" d="M33 801q0 -72 39 -126.5t101 -85.5q60 -30 155 -30q134 0 206 69.5t72 198.5q0 172 -196 203v4q75 15 123.5 64.5t48.5 124.5q0 112 -67.5 169.5t-188.5 57.5q-279 0 -279 -252h148q0 141 127 141q52 0 82 -32t30 -84q0 -65 -39.5 -103.5t-107.5 -38.5h-49v-110h57 q79 0 121.5 -39t42.5 -113q0 -68 -37 -108.5t-98 -40.5q-65 0 -104.5 39.5t-39.5 101.5h-147v-10z" />
<glyph unicode="&#xb4;" horiz-adv-x="417" d="M106 1249h123l222 291h-201z" />
<glyph unicode="&#xb5;" horiz-adv-x="948" d="M113 -360h172v360q38 -29 116 -29q88 0 162 45.5t105 112.5h4v-129h164v1098h-172v-758q0 -97 -62.5 -159t-155.5 -62q-92 0 -126.5 57t-34.5 164v758h-172v-1458z" />
<glyph unicode="&#xb6;" horiz-adv-x="1138" d="M74 1040q0 -130 72.5 -220.5t184.5 -131.5q81 -29 171 -29v-946h135v1639h205v-1639h135v1749h-420q-215 0 -349 -111.5t-134 -310.5z" />
<glyph unicode="&#xb7;" horiz-adv-x="491" d="M131 670q0 -46 34.5 -80.5t80.5 -34.5t80 34t34 81q0 46 -34 80t-80 34q-47 0 -81 -34t-34 -80z" />
<glyph unicode="&#xb8;" horiz-adv-x="417" d="M-2 -393q71 -41 203 -41q86 0 152.5 50t66.5 126q0 70 -47.5 113t-116.5 43q-28 0 -61 -13l-5 4l84 123h-86l-120 -178l30 -37q18 15 78 15q38 0 67 -21.5t29 -54.5q0 -84 -112 -84q-14 0 -67 10t-64 14z" />
<glyph unicode="&#xb9;" horiz-adv-x="638" d="M66 1214h196v-641h135v877h-100q-1 -43 -18 -71.5t-51 -42t-71 -18.5t-91 -5v-99z" />
<glyph unicode="&#xba;" horiz-adv-x="591" d="M33 1104q0 -79 12.5 -140t41.5 -110.5t81 -75.5t125 -26q74 0 127 26t83 74.5t43 110t13 141.5q0 346 -266 346q-260 0 -260 -346zM168 1104q0 248 125 248q40 0 67.5 -20.5t40.5 -58t18 -77.5t5 -92q0 -254 -131 -254q-125 0 -125 254z" />
<glyph unicode="&#xbb;" horiz-adv-x="796" d="M100 209l291 293v160l-291 292v-180l193 -192l-193 -193v-180zM406 209l290 293v160l-290 292v-180l192 -192l-192 -193v-180z" />
<glyph unicode="&#xbc;" horiz-adv-x="1476" d="M66 1214h196v-641h135v877h-100q-1 -43 -18 -71.5t-51 -42t-71 -18.5t-91 -5v-99zM190 -63h123l889 1548h-123zM819 203h340v-203h135v203h97v110h-97v564h-147l-328 -551v-123zM930 313l225 379h4v-379h-229z" />
<glyph unicode="&#xbd;" horiz-adv-x="1476" d="M61 1214h197v-641h135v877h-100q-1 -43 -18.5 -71.5t-51.5 -42t-71 -18.5t-91 -5v-99zM152 -63h122l889 1548h-123zM858 598h148q0 156 127 156q65 0 100 -31t35 -92q0 -39 -8.5 -70t-29.5 -57t-38 -41.5t-51 -42.5l-76 -62q-96 -79 -150 -161q-55 -83 -55 -197h535v123 h-369q24 72 96 129l127 102q87 68 127 131q39 61 39 158q0 113 -75 173.5t-197 60.5q-285 0 -285 -279z" />
<glyph unicode="&#xbe;" horiz-adv-x="1476" d="M41 801q0 -72 39 -126.5t101 -85.5q60 -30 155 -30q134 0 206 69.5t72 198.5q0 172 -196 203v4q75 15 123.5 64.5t48.5 124.5q0 112 -67.5 169.5t-188.5 57.5q-279 0 -279 -252h148q0 141 127 141q52 0 82 -32t30 -84q0 -65 -39.5 -103.5t-107.5 -38.5h-49v-110h57 q79 0 121.5 -39t42.5 -113q0 -68 -37 -108.5t-98 -40.5q-65 0 -104.5 39.5t-39.5 101.5h-147v-10zM297 -63h123l889 1548h-123zM864 203h340v-203h135v203h97v110h-97v564h-147l-328 -551v-123zM975 313l225 379h4v-379h-229z" />
<glyph unicode="&#xbf;" d="M72 8q0 -174 105 -279.5t280 -105.5q184 0 282.5 124t98.5 323h-172q0 -299 -215 -299q-92 0 -145.5 64.5t-53.5 162.5q0 44 7 80.5t13 57t28.5 52.5t31 41.5t43.5 49.5q14 17 40.5 48t40.5 47.5t32.5 43t31.5 51.5q26 48 32.5 101t6.5 151h-160v-39q0 -50 -10 -91 t-32.5 -77t-41 -59t-53 -59.5t-49.5 -54.5q-68 -81 -104.5 -155.5t-36.5 -177.5zM383 905h188v197h-188v-197z" />
<glyph unicode="&#xc0;" horiz-adv-x="1024" d="M-16 0h188l109 401h467l104 -401h188l-393 1462h-241zM285 1833l221 -291h123l-144 291h-200zM317 549l203 706h4l187 -706h-394z" />
<glyph unicode="&#xc1;" horiz-adv-x="1024" d="M-16 0h188l109 401h467l104 -401h188l-393 1462h-241zM317 549l203 706h4l187 -706h-394zM424 1542h123l221 291h-201z" />
<glyph unicode="&#xc2;" horiz-adv-x="1024" d="M-16 0h188l109 401h467l104 -401h188l-393 1462h-241zM242 1542h159l125 180l125 -180h160l-205 291h-157zM317 549l203 706h4l187 -706h-394z" />
<glyph unicode="&#xc3;" horiz-adv-x="1024" d="M-16 0h188l109 401h467l104 -401h188l-393 1462h-241zM225 1567h111q6 37 26 64.5t54 27.5q17 0 89.5 -32t77.5 -34q36 -12 68 -12q79 0 127.5 69t48.5 158h-110v-4q-5 -19 -7 -27.5t-8 -23t-12.5 -20.5t-18 -11.5t-26.5 -5.5q-22 0 -86 29l-20 10q-78 39 -123 39 q-81 0 -136 -69t-55 -158zM317 549l203 706h4l187 -706h-394z" />
<glyph unicode="&#xc4;" horiz-adv-x="1024" d="M-16 0h188l109 401h467l104 -401h188l-393 1462h-241zM281 1591h159v207h-159v-207zM317 549l203 706h4l187 -706h-394zM612 1591h160v207h-160v-207z" />
<glyph unicode="&#xc5;" horiz-adv-x="1024" d="M-16 0h188l109 401h467l104 -401h188l-393 1462h-241zM317 549l203 706h4l187 -706h-394zM324 1706q0 -83 59.5 -143t142.5 -60t143 60t60 143t-60 143t-143 60t-142.5 -60t-59.5 -143zM410 1706q0 47 35 82t81 35t81.5 -35.5t35.5 -81.5t-35.5 -81.5t-81.5 -35.5t-81 35 t-35 82z" />
<glyph unicode="&#xc6;" horiz-adv-x="1478" d="M-16 0h188l150 401h358v-401h750v160h-570v524h512v160h-512v459h545v159h-856zM373 549l286 766h21v-766h-307z" />
<glyph unicode="&#xc7;" horiz-adv-x="1062" d="M98 731q0 -103 6.5 -186.5t22 -169t45 -150.5t73 -119t108 -87t147.5 -44l-94 -141l30 -37q18 15 78 15q38 0 67 -21.5t29 -54.5q0 -84 -112 -84q-14 0 -67 10t-64 14l-31 -69q71 -41 203 -41q86 0 152.5 50t66.5 126q0 70 -47.5 113t-116.5 43q-30 0 -62 -13l-4 4l56 82 q109 2 191 44t131 116.5t75 166t33 204.5h-189q-2 -66 -8.5 -118t-24 -103.5t-45 -85.5t-73 -55t-105.5 -21q-45 0 -82.5 12.5t-65 31.5t-49 52.5t-35.5 64.5t-23.5 79.5t-15 85.5t-8 95t-3 94.5t-0.5 96.5q0 85 1.5 141t9 129t21.5 122t40 96.5t63 77.5q56 46 147 46 q235 0 244 -307h188q-6 225 -110 340t-322 115q-83 0 -150.5 -21.5t-116 -59t-85 -94t-59 -119t-36.5 -142t-19 -156.5t-5 -168z" />
<glyph unicode="&#xc8;" horiz-adv-x="948" d="M119 0h780v160h-600v524h543v160h-543v459h575v159h-755v-1462zM258 1833l221 -291h123l-143 291h-201z" />
<glyph unicode="&#xc9;" horiz-adv-x="948" d="M119 0h780v160h-600v524h543v160h-543v459h575v159h-755v-1462zM397 1542h123l221 291h-200z" />
<glyph unicode="&#xca;" horiz-adv-x="948" d="M119 0h780v160h-600v524h543v160h-543v459h575v159h-755v-1462zM215 1542h160l125 180l125 -180h159l-204 291h-158z" />
<glyph unicode="&#xcb;" horiz-adv-x="948" d="M119 0h780v160h-600v524h543v160h-543v459h575v159h-755v-1462zM254 1591h160v207h-160v-207zM586 1591h159v207h-159v-207z" />
<glyph unicode="&#xcc;" horiz-adv-x="417" d="M-33 1833l221 -291h123l-143 291h-201zM119 0h180v1462h-180v-1462z" />
<glyph unicode="&#xcd;" horiz-adv-x="417" d="M106 1542h123l222 291h-201zM119 0h180v1462h-180v-1462z" />
<glyph unicode="&#xce;" horiz-adv-x="417" d="M-76 1542h160l125 180l125 -180h160l-205 291h-158zM119 0h180v1462h-180v-1462z" />
<glyph unicode="&#xcf;" horiz-adv-x="417" d="M-37 1591h160v207h-160v-207zM119 0h180v1462h-180v-1462zM295 1591h160v207h-160v-207z" />
<glyph unicode="&#xd0;" horiz-adv-x="1138" d="M18 696h119v-696h410q115 0 202.5 39t141.5 104t88.5 161t47.5 199t13 228q0 98 -5.5 177t-20.5 156.5t-39.5 136t-63.5 109.5t-92.5 83t-126.5 50.5t-164 18.5h-391v-631h-119v-135zM317 147v549h275v135h-275v484h189q66 0 118 -16.5t88 -43.5t62 -71.5t41 -90.5 t23.5 -110t11 -121t2.5 -133q0 -69 -3.5 -126.5t-13 -119t-25.5 -109.5t-42.5 -92t-62.5 -72.5t-86.5 -45.5t-112.5 -17h-189z" />
<glyph unicode="&#xd1;" horiz-adv-x="1138" d="M119 0h180v1184h4l469 -1184h248v1462h-180v-1220h-4l-484 1220h-233v-1462zM268 1567h111q6 37 26 64.5t54 27.5q17 0 89.5 -32t77.5 -34q36 -12 68 -12q79 0 127.5 69t48.5 158h-110v-4q-5 -19 -7 -27.5t-8 -23t-12.5 -20.5t-18 -11.5t-26.5 -5.5q-22 0 -86 29l-20 10 q-78 39 -123 39q-81 0 -136 -69t-55 -158z" />
<glyph unicode="&#xd2;" horiz-adv-x="1138" d="M98 731q0 -125 10.5 -224t35.5 -192t72 -164t115 -116q96 -64 238 -64q83 0 150.5 21.5t116 59t85 94t59 119t36.5 142t19 156.5t5 168q0 260 -50.5 434.5t-181.5 261.5q-96 64 -239 64q-83 0 -150.5 -21.5t-116 -59t-85 -94t-59 -119t-36.5 -142t-19 -156.5t-5 -168z M287 731q0 85 1.5 141t9 129t21.5 122t40 96.5t63 77.5q56 46 147 46q45 0 82.5 -12.5t65 -31.5t49 -52.5t35.5 -64.5t24 -79.5t15 -86t8 -94.5t3.5 -94.5t0.5 -96.5q0 -85 -1.5 -141t-9 -129t-21.5 -122t-40 -96.5t-63 -77.5q-56 -46 -148 -46q-45 0 -82.5 12.5t-65 31.5 t-49 52.5t-35.5 64.5t-23.5 79.5t-15 85.5t-8 95t-3 94.5t-0.5 96.5zM328 1833l221 -291h123l-144 291h-200z" />
<glyph unicode="&#xd3;" horiz-adv-x="1138" d="M98 731q0 -125 10.5 -224t35.5 -192t72 -164t115 -116q96 -64 238 -64q83 0 150.5 21.5t116 59t85 94t59 119t36.5 142t19 156.5t5 168q0 260 -50.5 434.5t-181.5 261.5q-96 64 -239 64q-83 0 -150.5 -21.5t-116 -59t-85 -94t-59 -119t-36.5 -142t-19 -156.5t-5 -168z M287 731q0 85 1.5 141t9 129t21.5 122t40 96.5t63 77.5q56 46 147 46q45 0 82.5 -12.5t65 -31.5t49 -52.5t35.5 -64.5t24 -79.5t15 -86t8 -94.5t3.5 -94.5t0.5 -96.5q0 -85 -1.5 -141t-9 -129t-21.5 -122t-40 -96.5t-63 -77.5q-56 -46 -148 -46q-45 0 -82.5 12.5t-65 31.5 t-49 52.5t-35.5 64.5t-23.5 79.5t-15 85.5t-8 95t-3 94.5t-0.5 96.5zM467 1542h123l221 291h-201z" />
<glyph unicode="&#xd4;" horiz-adv-x="1138" d="M98 731q0 -125 10.5 -224t35.5 -192t72 -164t115 -116q96 -64 238 -64q83 0 150.5 21.5t116 59t85 94t59 119t36.5 142t19 156.5t5 168q0 260 -50.5 434.5t-181.5 261.5q-96 64 -239 64q-83 0 -150.5 -21.5t-116 -59t-85 -94t-59 -119t-36.5 -142t-19 -156.5t-5 -168z M285 1542h159l125 180l125 -180h160l-205 291h-157zM287 731q0 85 1.5 141t9 129t21.5 122t40 96.5t63 77.5q56 46 147 46q45 0 82.5 -12.5t65 -31.5t49 -52.5t35.5 -64.5t24 -79.5t15 -86t8 -94.5t3.5 -94.5t0.5 -96.5q0 -85 -1.5 -141t-9 -129t-21.5 -122t-40 -96.5 t-63 -77.5q-56 -46 -148 -46q-45 0 -82.5 12.5t-65 31.5t-49 52.5t-35.5 64.5t-23.5 79.5t-15 85.5t-8 95t-3 94.5t-0.5 96.5z" />
<glyph unicode="&#xd5;" horiz-adv-x="1138" d="M98 731q0 -125 10.5 -224t35.5 -192t72 -164t115 -116q96 -64 238 -64q83 0 150.5 21.5t116 59t85 94t59 119t36.5 142t19 156.5t5 168q0 260 -50.5 434.5t-181.5 261.5q-96 64 -239 64q-83 0 -150.5 -21.5t-116 -59t-85 -94t-59 -119t-36.5 -142t-19 -156.5t-5 -168z M268 1567h111q6 37 26 64.5t54 27.5q17 0 89.5 -32t77.5 -34q36 -12 68 -12q79 0 127.5 69t48.5 158h-110v-4q-5 -19 -7 -27.5t-8 -23t-12.5 -20.5t-18 -11.5t-26.5 -5.5q-22 0 -86 29l-20 10q-78 39 -123 39q-81 0 -136 -69t-55 -158zM287 731q0 85 1.5 141t9 129t21.5 122 t40 96.5t63 77.5q56 46 147 46q45 0 82.5 -12.5t65 -31.5t49 -52.5t35.5 -64.5t24 -79.5t15 -86t8 -94.5t3.5 -94.5t0.5 -96.5q0 -85 -1.5 -141t-9 -129t-21.5 -122t-40 -96.5t-63 -77.5q-56 -46 -148 -46q-45 0 -82.5 12.5t-65 31.5t-49 52.5t-35.5 64.5t-23.5 79.5 t-15 85.5t-8 95t-3 94.5t-0.5 96.5z" />
<glyph unicode="&#xd6;" horiz-adv-x="1138" d="M98 731q0 -125 10.5 -224t35.5 -192t72 -164t115 -116q96 -64 238 -64q83 0 150.5 21.5t116 59t85 94t59 119t36.5 142t19 156.5t5 168q0 260 -50.5 434.5t-181.5 261.5q-96 64 -239 64q-83 0 -150.5 -21.5t-116 -59t-85 -94t-59 -119t-36.5 -142t-19 -156.5t-5 -168z M287 731q0 85 1.5 141t9 129t21.5 122t40 96.5t63 77.5q56 46 147 46q45 0 82.5 -12.5t65 -31.5t49 -52.5t35.5 -64.5t24 -79.5t15 -86t8 -94.5t3.5 -94.5t0.5 -96.5q0 -85 -1.5 -141t-9 -129t-21.5 -122t-40 -96.5t-63 -77.5q-56 -46 -148 -46q-45 0 -82.5 12.5t-65 31.5 t-49 52.5t-35.5 64.5t-23.5 79.5t-15 85.5t-8 95t-3 94.5t-0.5 96.5zM324 1591h159v207h-159v-207zM655 1591h160v207h-160v-207z" />
<glyph unicode="&#xd7;" horiz-adv-x="1228" d="M158 147l86 -86l370 369l369 -369l88 86l-371 371l371 371l-88 86l-369 -369l-370 369l-86 -86l370 -371z" />
<glyph unicode="&#xd8;" horiz-adv-x="1138" d="M98 731q0 -436 150 -616l-68 -164l111 -49l53 127q93 -58 225 -58q83 0 150.5 21.5t116 59t85 94t59 119t36.5 142t19 156.5t5 168q0 212 -33.5 367.5t-115.5 253.5l65 157l-110 45l-49 -120q-91 57 -228 57q-83 0 -150.5 -21.5t-116 -59t-85 -94t-59 -119t-36.5 -142 t-19 -156.5t-5 -168zM287 731q0 85 1.5 141t9 129t21.5 122t40 96.5t63 77.5q56 46 147 46q103 0 164 -61l-403 -969q-43 137 -43 418zM408 180l401 971q43 -131 43 -420q0 -85 -1.5 -141t-9 -129t-21.5 -122t-40 -96.5t-63 -77.5q-56 -46 -148 -46q-100 0 -161 61z" />
<glyph unicode="&#xd9;" horiz-adv-x="1062" d="M102 434q0 -463 428 -463q209 0 320 123t111 340v1028h-181v-1028q0 -161 -54.5 -238t-195.5 -77q-136 0 -191.5 78t-55.5 237v1028h-181v-1028zM291 1833l221 -291h123l-143 291h-201z" />
<glyph unicode="&#xda;" horiz-adv-x="1062" d="M102 434q0 -463 428 -463q209 0 320 123t111 340v1028h-181v-1028q0 -161 -54.5 -238t-195.5 -77q-136 0 -191.5 78t-55.5 237v1028h-181v-1028zM430 1542h123l221 291h-201z" />
<glyph unicode="&#xdb;" horiz-adv-x="1062" d="M102 434q0 -463 428 -463q209 0 320 123t111 340v1028h-181v-1028q0 -161 -54.5 -238t-195.5 -77q-136 0 -191.5 78t-55.5 237v1028h-181v-1028zM248 1542h160l124 180l125 -180h160l-205 291h-157z" />
<glyph unicode="&#xdc;" horiz-adv-x="1062" d="M102 434q0 -463 428 -463q209 0 320 123t111 340v1028h-181v-1028q0 -161 -54.5 -238t-195.5 -77q-136 0 -191.5 78t-55.5 237v1028h-181v-1028zM287 1591h159v207h-159v-207zM618 1591h160v207h-160v-207z" />
<glyph unicode="&#xdd;" horiz-adv-x="946" d="M-4 1462l387 -889v-573h180v573l387 889h-188l-289 -684l-278 684h-199zM371 1542h123l221 291h-201z" />
<glyph unicode="&#xde;" horiz-adv-x="985" d="M119 0h180v332h223q194 0 308 114t114 310q0 179 -79.5 284.5t-229.5 125.5q-75 10 -143 10h-193v286h-180v-1462zM299 479v549h203q126 0 190 -68t64 -196t-64 -206.5t-178 -78.5h-215z" />
<glyph unicode="&#xdf;" horiz-adv-x="948" d="M98 0h172v1075q0 135 39.5 201.5t151.5 66.5q93 0 136.5 -61.5t43.5 -165.5q0 -95 -52 -155t-140 -60h-41v-141q36 6 81 6q107 0 163.5 -88.5t56.5 -218.5q0 -200 -97 -281q-39 -31 -92 -31h-119v-147h121q120 0 205 64t123.5 165.5t38.5 229.5q0 104 -31.5 188.5 t-99.5 138.5t-162 54v4q97 17 157 102t60 199q0 159 -95 246.5t-257 87.5q-195 0 -279 -109.5t-84 -322.5v-1047z" />
<glyph unicode="&#xe0;" d="M59 291q0 -153 75.5 -236.5t223.5 -83.5q84 0 156 46t109 112h4q3 -76 39 -108.5t116 -32.5q47 0 99 10h2v123q-14 -10 -41 -10q-34 0 -44 20.5t-10 67.5v612q0 169 -78.5 242t-254.5 73q-194 0 -281.5 -85t-87.5 -275h172v10q0 101 45.5 158t142.5 57q177 0 177 -162 q0 -61 -11 -90.5t-34 -43t-80 -31.5l-232 -70q-207 -61 -207 -303zM213 1540l221 -291h123l-143 291h-201zM240 295q0 33 5.5 59.5t12 45t23 35t28 26t39.5 21t43.5 17t52.5 17.5q4 1 23.5 7t24 7.5t20.5 7t21.5 7.5t18 7.5t18.5 9.5t15.5 10t16.5 12.5t14 13.5v-283 q0 -83 -68 -146t-153 -63q-155 0 -155 189z" />
<glyph unicode="&#xe1;" d="M59 291q0 -153 75.5 -236.5t223.5 -83.5q84 0 156 46t109 112h4q3 -76 39 -108.5t116 -32.5q47 0 99 10h2v123q-14 -10 -41 -10q-34 0 -44 20.5t-10 67.5v612q0 169 -78.5 242t-254.5 73q-194 0 -281.5 -85t-87.5 -275h172v10q0 101 45.5 158t142.5 57q177 0 177 -162 q0 -61 -11 -90.5t-34 -43t-80 -31.5l-232 -70q-207 -61 -207 -303zM240 295q0 33 5.5 59.5t12 45t23 35t28 26t39.5 21t43.5 17t52.5 17.5q4 1 23.5 7t24 7.5t20.5 7t21.5 7.5t18 7.5t18.5 9.5t15.5 10t16.5 12.5t14 13.5v-283q0 -83 -68 -146t-153 -63q-155 0 -155 189z M352 1249h123l221 291h-200z" />
<glyph unicode="&#xe2;" d="M59 291q0 -153 75.5 -236.5t223.5 -83.5q84 0 156 46t109 112h4q3 -76 39 -108.5t116 -32.5q47 0 99 10h2v123q-14 -10 -41 -10q-34 0 -44 20.5t-10 67.5v612q0 169 -78.5 242t-254.5 73q-194 0 -281.5 -85t-87.5 -275h172v10q0 101 45.5 158t142.5 57q177 0 177 -162 q0 -61 -11 -90.5t-34 -43t-80 -31.5l-232 -70q-207 -61 -207 -303zM170 1249h160l125 181l125 -181h159l-204 291h-158zM240 295q0 33 5.5 59.5t12 45t23 35t28 26t39.5 21t43.5 17t52.5 17.5q4 1 23.5 7t24 7.5t20.5 7t21.5 7.5t18 7.5t18.5 9.5t15.5 10t16.5 12.5t14 13.5 v-283q0 -83 -68 -146t-153 -63q-155 0 -155 189z" />
<glyph unicode="&#xe3;" d="M59 291q0 -153 75.5 -236.5t223.5 -83.5q84 0 156 46t109 112h4q3 -76 39 -108.5t116 -32.5q47 0 99 10h2v123q-14 -10 -41 -10q-34 0 -44 20.5t-10 67.5v612q0 169 -78.5 242t-254.5 73q-194 0 -281.5 -85t-87.5 -275h172v10q0 101 45.5 158t142.5 57q177 0 177 -162 q0 -61 -11 -90.5t-34 -43t-80 -31.5l-232 -70q-207 -61 -207 -303zM154 1274h110q6 37 26 64.5t54 27.5q17 0 89.5 -32t77.5 -34q36 -12 69 -12q79 0 127.5 69.5t48.5 158.5h-111v-5q-5 -19 -7 -27.5t-8 -23t-12.5 -20.5t-18 -11.5t-26.5 -5.5q-22 0 -86 29l-20 10 q-78 39 -123 39q-81 0 -135.5 -68.5t-54.5 -158.5zM240 295q0 33 5.5 59.5t12 45t23 35t28 26t39.5 21t43.5 17t52.5 17.5q4 1 23.5 7t24 7.5t20.5 7t21.5 7.5t18 7.5t18.5 9.5t15.5 10t16.5 12.5t14 13.5v-283q0 -83 -68 -146t-153 -63q-155 0 -155 189z" />
<glyph unicode="&#xe4;" d="M59 291q0 -153 75.5 -236.5t223.5 -83.5q84 0 156 46t109 112h4q3 -76 39 -108.5t116 -32.5q47 0 99 10h2v123q-14 -10 -41 -10q-34 0 -44 20.5t-10 67.5v612q0 169 -78.5 242t-254.5 73q-194 0 -281.5 -85t-87.5 -275h172v10q0 101 45.5 158t142.5 57q177 0 177 -162 q0 -61 -11 -90.5t-34 -43t-80 -31.5l-232 -70q-207 -61 -207 -303zM209 1298h160v207h-160v-207zM240 295q0 33 5.5 59.5t12 45t23 35t28 26t39.5 21t43.5 17t52.5 17.5q4 1 23.5 7t24 7.5t20.5 7t21.5 7.5t18 7.5t18.5 9.5t15.5 10t16.5 12.5t14 13.5v-283q0 -83 -68 -146 t-153 -63q-155 0 -155 189zM541 1298h159v207h-159v-207z" />
<glyph unicode="&#xe5;" d="M59 291q0 -153 75.5 -236.5t223.5 -83.5q84 0 156 46t109 112h4q3 -76 39 -108.5t116 -32.5q47 0 99 10h2v123q-14 -10 -41 -10q-34 0 -44 20.5t-10 67.5v612q0 169 -78.5 242t-254.5 73q-194 0 -281.5 -85t-87.5 -275h172v10q0 101 45.5 158t142.5 57q177 0 177 -162 q0 -61 -11 -90.5t-34 -43t-80 -31.5l-232 -70q-207 -61 -207 -303zM240 295q0 33 5.5 59.5t12 45t23 35t28 26t39.5 21t43.5 17t52.5 17.5q4 1 23.5 7t24 7.5t20.5 7t21.5 7.5t18 7.5t18.5 9.5t15.5 10t16.5 12.5t14 13.5v-283q0 -83 -68 -146t-153 -63q-155 0 -155 189z M252 1413q0 -83 60 -143t143 -60t142.5 60t59.5 143t-59.5 143t-142.5 60t-143 -60t-60 -143zM338 1413q0 47 35 82t82 35q46 0 81 -35t35 -82t-35 -82t-81 -35q-47 0 -82 35t-35 82z" />
<glyph unicode="&#xe6;" horiz-adv-x="1366" d="M53 291q0 -144 81 -232t220 -88q213 0 305 201h5q5 -56 67 -120q78 -81 227 -81q133 0 216.5 76.5t113.5 196.5q17 68 17 116h-172q0 -111 -45.5 -182.5t-141.5 -71.5q-40 0 -70.5 14.5t-50.5 34.5t-34 57.5t-21 68t-11 81t-4.5 81.5t-0.5 85h559v70q0 94 -8 166.5 t-30.5 143t-60 116.5t-100 74t-147.5 28t-159 -44t-99 -107h-4q-19 73 -90.5 112t-172.5 39q-187 0 -273.5 -86.5t-86.5 -273.5h172v10q0 99 42.5 157t133.5 58q164 0 164 -162q0 -75 -14.5 -109t-61.5 -48l-256 -78q-98 -30 -153.5 -107.5t-55.5 -195.5zM233 297 q0 72 21.5 114t69.5 60q31 13 107 36t91 29q61 21 68 35h4v-215q0 -112 -51.5 -181t-155.5 -69q-75 0 -114.5 54t-39.5 137zM760 664v41q0 75 17 136.5t61.5 105.5t111.5 44q96 0 139.5 -76t43.5 -192v-59h-373z" />
<glyph unicode="&#xe7;" horiz-adv-x="872" d="M66 535q0 -99 9.5 -177.5t33 -149.5t61.5 -120t97.5 -80t138.5 -37l-97 -137l31 -37q18 15 78 15q38 0 67 -21.5t29 -54.5q0 -84 -113 -84q-14 0 -67 10t-64 14l-30 -69q71 -41 202 -41q86 0 153 50t67 126q0 70 -47.5 113t-116.5 43q-30 0 -62 -13l-4 4l60 84 q150 15 232.5 126.5t82.5 281.5h-172q0 -56 -8.5 -102.5t-28 -87t-56 -63t-87.5 -22.5q-47 0 -82.5 17.5t-58 51.5t-37 72.5t-21 92t-8.5 97t-2 100.5q0 274 65 374q27 42 61 61t89 19q87 0 130.5 -64t43.5 -163h172q0 169 -90.5 265.5t-259.5 96.5q-67 0 -122 -16.5 t-95 -45t-70.5 -71.5t-50 -92t-31.5 -110t-17 -122.5t-5 -133.5z" />
<glyph unicode="&#xe8;" d="M76 535q0 -104 10.5 -186t37 -154.5t69 -120.5t109 -75.5t155.5 -27.5q142 0 230 74.5t121 198.5q17 62 17 116h-172q0 -112 -45 -183t-141 -71q-42 0 -75 13.5t-55 34t-37.5 55t-24 67t-13 80.5t-5.5 83.5t-1 88.5h578v70q0 96 -9 170.5t-33.5 144t-64.5 114.5t-106 72 t-154 27q-67 0 -122 -16.5t-95 -45t-70.5 -71.5t-50 -92t-31.5 -110t-17 -122.5t-5 -133.5zM213 1540l221 -291h123l-143 291h-201zM262 664v41q0 76 18.5 138t65.5 105t117 43q100 0 145 -74.5t45 -193.5v-59h-391z" />
<glyph unicode="&#xe9;" d="M76 535q0 -104 10.5 -186t37 -154.5t69 -120.5t109 -75.5t155.5 -27.5q142 0 230 74.5t121 198.5q17 62 17 116h-172q0 -112 -45 -183t-141 -71q-42 0 -75 13.5t-55 34t-37.5 55t-24 67t-13 80.5t-5.5 83.5t-1 88.5h578v70q0 96 -9 170.5t-33.5 144t-64.5 114.5t-106 72 t-154 27q-67 0 -122 -16.5t-95 -45t-70.5 -71.5t-50 -92t-31.5 -110t-17 -122.5t-5 -133.5zM262 664v41q0 76 18.5 138t65.5 105t117 43q100 0 145 -74.5t45 -193.5v-59h-391zM352 1249h123l221 291h-200z" />
<glyph unicode="&#xea;" d="M76 535q0 -104 10.5 -186t37 -154.5t69 -120.5t109 -75.5t155.5 -27.5q142 0 230 74.5t121 198.5q17 62 17 116h-172q0 -112 -45 -183t-141 -71q-42 0 -75 13.5t-55 34t-37.5 55t-24 67t-13 80.5t-5.5 83.5t-1 88.5h578v70q0 96 -9 170.5t-33.5 144t-64.5 114.5t-106 72 t-154 27q-67 0 -122 -16.5t-95 -45t-70.5 -71.5t-50 -92t-31.5 -110t-17 -122.5t-5 -133.5zM170 1249h160l125 181l125 -181h159l-204 291h-158zM262 664v41q0 76 18.5 138t65.5 105t117 43q100 0 145 -74.5t45 -193.5v-59h-391z" />
<glyph unicode="&#xeb;" d="M76 535q0 -104 10.5 -186t37 -154.5t69 -120.5t109 -75.5t155.5 -27.5q142 0 230 74.5t121 198.5q17 62 17 116h-172q0 -112 -45 -183t-141 -71q-42 0 -75 13.5t-55 34t-37.5 55t-24 67t-13 80.5t-5.5 83.5t-1 88.5h578v70q0 96 -9 170.5t-33.5 144t-64.5 114.5t-106 72 t-154 27q-67 0 -122 -16.5t-95 -45t-70.5 -71.5t-50 -92t-31.5 -110t-17 -122.5t-5 -133.5zM209 1298h160v207h-160v-207zM262 664v41q0 76 18.5 138t65.5 105t117 43q100 0 145 -74.5t45 -193.5v-59h-391zM541 1298h159v207h-159v-207z" />
<glyph unicode="&#xec;" horiz-adv-x="417" d="M-33 1540l221 -291h123l-143 291h-201zM123 0h172v1098h-172v-1098z" />
<glyph unicode="&#xed;" horiz-adv-x="417" d="M106 1249h123l222 291h-201zM123 0h172v1098h-172v-1098z" />
<glyph unicode="&#xee;" horiz-adv-x="417" d="M-76 1249h160l125 181l125 -181h160l-205 291h-158zM123 0h172v1098h-172v-1098z" />
<glyph unicode="&#xef;" horiz-adv-x="417" d="M-37 1298h160v207h-160v-207zM123 0h172v1098h-172v-1098zM295 1298h160v207h-160v-207z" />
<glyph unicode="&#xf0;" d="M59 549q0 -101 10.5 -182.5t38 -157t71.5 -126.5t114 -81.5t162 -30.5t162 30.5t113.5 81.5t71 126.5t38 157.5t10.5 182q0 193 -41 345.5t-109.5 260.5t-179.5 219l144 82l-78 86l-152 -86q-61 56 -147 125l-131 -57q94 -75 157 -138l-145 -81l78 -86l149 84 q93 -100 185 -240h-5q-56 35 -120 35q-91 0 -160.5 -27.5t-113.5 -75.5t-72 -119t-39 -150t-11 -177zM240 549q0 289 107 379q43 35 104 35q55 0 96 -25t64 -64t37 -96.5t18 -110t4 -118.5q0 -51 -1.5 -90.5t-6.5 -87.5t-14.5 -83.5t-26 -71.5t-39 -59t-56 -37t-75.5 -14 q-47 0 -83 18t-58.5 53t-37 74t-21 94.5t-9 100t-2.5 103.5z" />
<glyph unicode="&#xf1;" horiz-adv-x="948" d="M113 0h172v758q0 99 61.5 160t155.5 61q92 0 127 -57t35 -164v-758h172v778q0 176 -63.5 262t-225.5 86q-90 0 -163 -44.5t-103 -112.5h-5v129h-163v-1098zM174 1274h111q6 37 26 64.5t54 27.5q17 0 89 -32t77 -34q36 -12 69 -12q79 0 127.5 69.5t48.5 158.5h-110v-5 q-5 -19 -7 -27.5t-8 -23t-12.5 -20.5t-18 -11.5t-26.5 -5.5q-22 0 -86 29l-21 10q-78 39 -122 39q-81 0 -136 -69t-55 -158z" />
<glyph unicode="&#xf2;" d="M59 549q0 -101 10.5 -182.5t38 -157t71.5 -126.5t114 -81.5t162 -30.5t162 30.5t113.5 81.5t71 126.5t38 157.5t10.5 182q0 101 -10.5 182.5t-38 157t-71 126.5t-113.5 81t-162 30t-162 -30t-114 -81.5t-71.5 -126.5t-38 -157t-10.5 -182zM213 1540l221 -291h123 l-143 291h-201zM240 549q0 59 2.5 103.5t9 99.5t21 94t37 74t58.5 53t83 18q42 0 75.5 -14t56 -37t39 -58.5t26 -71t14.5 -84t6.5 -87.5t1.5 -90t-1.5 -90.5t-6.5 -87.5t-14.5 -83.5t-26 -71.5t-39 -59t-56 -37t-75.5 -14q-47 0 -83 18t-58.5 53t-37 74t-21 94.5t-9 100 t-2.5 103.5z" />
<glyph unicode="&#xf3;" d="M59 549q0 -101 10.5 -182.5t38 -157t71.5 -126.5t114 -81.5t162 -30.5t162 30.5t113.5 81.5t71 126.5t38 157.5t10.5 182q0 101 -10.5 182.5t-38 157t-71 126.5t-113.5 81t-162 30t-162 -30t-114 -81.5t-71.5 -126.5t-38 -157t-10.5 -182zM240 549q0 59 2.5 103.5t9 99.5 t21 94t37 74t58.5 53t83 18q42 0 75.5 -14t56 -37t39 -58.5t26 -71t14.5 -84t6.5 -87.5t1.5 -90t-1.5 -90.5t-6.5 -87.5t-14.5 -83.5t-26 -71.5t-39 -59t-56 -37t-75.5 -14q-47 0 -83 18t-58.5 53t-37 74t-21 94.5t-9 100t-2.5 103.5zM352 1249h123l221 291h-200z" />
<glyph unicode="&#xf4;" d="M59 549q0 -101 10.5 -182.5t38 -157t71.5 -126.5t114 -81.5t162 -30.5t162 30.5t113.5 81.5t71 126.5t38 157.5t10.5 182q0 101 -10.5 182.5t-38 157t-71 126.5t-113.5 81t-162 30t-162 -30t-114 -81.5t-71.5 -126.5t-38 -157t-10.5 -182zM170 1249h160l125 181l125 -181 h159l-204 291h-158zM240 549q0 59 2.5 103.5t9 99.5t21 94t37 74t58.5 53t83 18q42 0 75.5 -14t56 -37t39 -58.5t26 -71t14.5 -84t6.5 -87.5t1.5 -90t-1.5 -90.5t-6.5 -87.5t-14.5 -83.5t-26 -71.5t-39 -59t-56 -37t-75.5 -14q-47 0 -83 18t-58.5 53t-37 74t-21 94.5t-9 100 t-2.5 103.5z" />
<glyph unicode="&#xf5;" d="M59 549q0 -101 10.5 -182.5t38 -157t71.5 -126.5t114 -81.5t162 -30.5t162 30.5t113.5 81.5t71 126.5t38 157.5t10.5 182q0 101 -10.5 182.5t-38 157t-71 126.5t-113.5 81t-162 30t-162 -30t-114 -81.5t-71.5 -126.5t-38 -157t-10.5 -182zM154 1274h110q6 37 26 64.5 t54 27.5q17 0 89.5 -32t77.5 -34q36 -12 69 -12q79 0 127.5 69.5t48.5 158.5h-111v-5q-5 -19 -7 -27.5t-8 -23t-12.5 -20.5t-18 -11.5t-26.5 -5.5q-22 0 -86 29l-20 10q-78 39 -123 39q-81 0 -135.5 -68.5t-54.5 -158.5zM240 549q0 59 2.5 103.5t9 99.5t21 94t37 74t58.5 53 t83 18q42 0 75.5 -14t56 -37t39 -58.5t26 -71t14.5 -84t6.5 -87.5t1.5 -90t-1.5 -90.5t-6.5 -87.5t-14.5 -83.5t-26 -71.5t-39 -59t-56 -37t-75.5 -14q-47 0 -83 18t-58.5 53t-37 74t-21 94.5t-9 100t-2.5 103.5z" />
<glyph unicode="&#xf6;" d="M59 549q0 -101 10.5 -182.5t38 -157t71.5 -126.5t114 -81.5t162 -30.5t162 30.5t113.5 81.5t71 126.5t38 157.5t10.5 182q0 101 -10.5 182.5t-38 157t-71 126.5t-113.5 81t-162 30t-162 -30t-114 -81.5t-71.5 -126.5t-38 -157t-10.5 -182zM209 1298h160v207h-160v-207z M240 549q0 59 2.5 103.5t9 99.5t21 94t37 74t58.5 53t83 18q42 0 75.5 -14t56 -37t39 -58.5t26 -71t14.5 -84t6.5 -87.5t1.5 -90t-1.5 -90.5t-6.5 -87.5t-14.5 -83.5t-26 -71.5t-39 -59t-56 -37t-75.5 -14q-47 0 -83 18t-58.5 53t-37 74t-21 94.5t-9 100t-2.5 103.5z M541 1298h159v207h-159v-207z" />
<glyph unicode="&#xf7;" horiz-adv-x="1228" d="M96 451h1037v135h-1037v-135zM500 86q0 -47 34 -81t80 -34t80.5 34.5t34.5 80.5t-34.5 80.5t-80.5 34.5t-80 -34t-34 -81zM500 950q0 -46 34 -80t80 -34q47 0 81 34t34 80t-34.5 80.5t-80.5 34.5t-80 -34t-34 -81z" />
<glyph unicode="&#xf8;" d="M59 549q0 -337 138 -475l-66 -156l96 -39l56 129q71 -37 172 -37q92 0 162 30.5t113.5 81.5t71 126.5t38 157.5t10.5 182q0 329 -133 477l61 145l-98 43l-53 -124q-66 36 -172 36q-92 0 -162 -30t-114 -81.5t-71.5 -126.5t-38 -157t-10.5 -182zM240 549q0 59 2.5 103.5 t9 99.5t21 94t37 74t58.5 53t83 18q67 0 116 -43l-293 -690q-34 109 -34 291zM342 145l293 689q35 -105 35 -285q0 -51 -1.5 -90.5t-6.5 -87.5t-14.5 -83.5t-26 -71.5t-39 -59t-56 -37t-75.5 -14q-65 0 -109 39z" />
<glyph unicode="&#xf9;" horiz-adv-x="948" d="M113 319q0 -176 63 -262t225 -86q88 0 162 45.5t105 112.5h4v-129h164v1098h-172v-758q0 -97 -62.5 -159t-155.5 -62q-92 0 -126.5 57t-34.5 164v758h-172v-779zM233 1540l222 -291h123l-144 291h-201z" />
<glyph unicode="&#xfa;" horiz-adv-x="948" d="M113 319q0 -176 63 -262t225 -86q88 0 162 45.5t105 112.5h4v-129h164v1098h-172v-758q0 -97 -62.5 -159t-155.5 -62q-92 0 -126.5 57t-34.5 164v758h-172v-779zM373 1249h123l221 291h-201z" />
<glyph unicode="&#xfb;" horiz-adv-x="948" d="M113 319q0 -176 63 -262t225 -86q88 0 162 45.5t105 112.5h4v-129h164v1098h-172v-758q0 -97 -62.5 -159t-155.5 -62q-92 0 -126.5 57t-34.5 164v758h-172v-779zM190 1249h160l125 181l125 -181h160l-205 291h-158z" />
<glyph unicode="&#xfc;" horiz-adv-x="948" d="M113 319q0 -176 63 -262t225 -86q88 0 162 45.5t105 112.5h4v-129h164v1098h-172v-758q0 -97 -62.5 -159t-155.5 -62q-92 0 -126.5 57t-34.5 164v758h-172v-779zM229 1298h160v207h-160v-207zM561 1298h160v207h-160v-207z" />
<glyph unicode="&#xfd;" horiz-adv-x="831" d="M20 1098l324 -1121l-33 -96q-16 -51 -47.5 -78.5t-87.5 -27.5q-62 0 -100 6v-135q19 0 61.5 -3t63.5 -3q58 0 103 15.5t74 38.5t52.5 63.5t36 77t27.5 91.5l317 1172h-188l-193 -881h-4l-217 881h-189zM313 1249h123l221 291h-200z" />
<glyph unicode="&#xfe;" horiz-adv-x="948" d="M113 -360h172v485h4q27 -65 89 -109.5t140 -44.5q82 0 145.5 35.5t103 93.5t65 138t35.5 160.5t10 170.5q0 94 -10.5 173.5t-36 152t-65.5 122.5t-103 79.5t-144 29.5q-77 0 -144.5 -45t-84.5 -108h-4v489h-172v-1822zM274 549q0 54 1.5 92t6.5 86t13.5 81.5t25 68 t40 55.5t57.5 34t78 13q43 0 76.5 -15.5t55 -45.5t35.5 -66t21 -86t9.5 -94.5t2.5 -102.5q0 -227 -44 -339q-44 -111 -156 -111q-57 0 -98.5 26.5t-64.5 66.5t-37 100.5t-18 114.5t-4 122z" />
<glyph unicode="&#xff;" horiz-adv-x="831" d="M20 1098l324 -1121l-33 -96q-16 -51 -47.5 -78.5t-87.5 -27.5q-62 0 -100 6v-135q19 0 61.5 -3t63.5 -3q58 0 103 15.5t74 38.5t52.5 63.5t36 77t27.5 91.5l317 1172h-188l-193 -881h-4l-217 881h-189zM170 1298h160v207h-160v-207zM502 1298h160v207h-160v-207z" />
<glyph unicode="&#x152;" horiz-adv-x="1630" d="M98 731q0 -93 5 -170t18 -157.5t35 -142.5t58.5 -118t85 -92.5t116.5 -58t153 -21.5q95 0 172 44t103 114h4v-129h733v160h-557v524h500v160h-500v459h532v159h-700v-112h-4q-30 62 -110.5 101.5t-172.5 39.5q-83 0 -150.5 -21.5t-116 -59t-85 -94t-59 -119t-36.5 -142 t-19 -156.5t-5 -168zM279 731q0 59 0.5 98t3.5 95.5t8.5 94.5t15.5 85.5t24.5 79t37 64.5t50.5 52t66 31t84 12q71 0 121.5 -18.5t80.5 -49.5t46.5 -84t21.5 -108t5 -135v-473q0 -85 -13 -147t-43.5 -111t-85 -73.5t-133.5 -24.5q-46 0 -84 12t-66 31t-50.5 52t-37 64.5 t-24.5 79t-15.5 85.5t-8.5 94.5t-3.5 95.5t-0.5 98z" />
<glyph unicode="&#x153;" horiz-adv-x="1478" d="M80 549q0 -578 385 -578q102 0 177 53t112 136q26 -86 102 -137.5t188 -51.5q133 0 216.5 76.5t113.5 196.5q17 68 17 116h-172q0 -111 -45.5 -182.5t-141.5 -71.5q-40 0 -70.5 14.5t-50.5 34.5t-34 57.5t-21 68t-11 81t-4.5 81.5t-0.5 85h559v70q0 94 -8 166.5 t-30.5 143t-60 116.5t-100 74t-147.5 28q-98 0 -174.5 -53t-112.5 -133q-49 95 -116.5 140.5t-184.5 45.5q-385 0 -385 -577zM260 549q0 146 22 249t82 157q40 36 101 36q47 0 83.5 -18t59.5 -53t38 -74.5t22 -94t9.5 -100t2.5 -102.5q0 -148 -23 -251.5t-86 -155.5 q-43 -36 -106 -36q-39 0 -70.5 15t-52.5 39t-36.5 60.5t-24 73t-13.5 84t-6.5 86t-1.5 85.5zM846 664v41q0 75 17 136.5t61.5 105.5t111.5 44q96 0 139.5 -76t43.5 -192v-59h-373z" />
<glyph unicode="&#x178;" horiz-adv-x="946" d="M-4 1462l387 -889v-573h180v573l387 889h-188l-289 -684l-278 684h-199zM227 1591h160v207h-160v-207zM559 1591h160v207h-160v-207z" />
<glyph unicode="&#x2c6;" horiz-adv-x="417" d="M-76 1249h160l125 181l125 -181h160l-205 291h-158z" />
<glyph unicode="&#x2dc;" horiz-adv-x="417" d="M-92 1274h110q6 37 26 64.5t54 27.5q17 0 89.5 -32t77.5 -34q36 -12 69 -12q79 0 127.5 69.5t48.5 158.5h-111v-5q-5 -21 -7 -28t-8 -22t-12 -21t-17.5 -11.5t-26.5 -5.5q-22 0 -86 29l-21 10q-78 39 -123 39q-81 0 -135.5 -68.5t-54.5 -158.5z" />
<glyph unicode="&#x2000;" horiz-adv-x="954" />
<glyph unicode="&#x2001;" horiz-adv-x="1909" />
<glyph unicode="&#x2002;" horiz-adv-x="954" />
<glyph unicode="&#x2003;" horiz-adv-x="1909" />
<glyph unicode="&#x2004;" horiz-adv-x="636" />
<glyph unicode="&#x2005;" horiz-adv-x="477" />
<glyph unicode="&#x2006;" horiz-adv-x="318" />
<glyph unicode="&#x2007;" horiz-adv-x="318" />
<glyph unicode="&#x2008;" horiz-adv-x="238" />
<glyph unicode="&#x2009;" horiz-adv-x="381" />
<glyph unicode="&#x200a;" horiz-adv-x="106" />
<glyph unicode="&#x2010;" horiz-adv-x="720" d="M111 502h499v160h-499v-160z" />
<glyph unicode="&#x2011;" horiz-adv-x="720" d="M111 502h499v160h-499v-160z" />
<glyph unicode="&#x2012;" horiz-adv-x="720" d="M111 502h499v160h-499v-160z" />
<glyph unicode="&#x2013;" horiz-adv-x="1024" d="M0 508h1024v147h-1024v-147z" />
<glyph unicode="&#x2014;" horiz-adv-x="2048" d="M0 508h2048v147h-2048v-147z" />
<glyph unicode="&#x2018;" horiz-adv-x="491" d="M152 942h188v217h-90v49q0 68 19.5 101t70.5 57v96q-108 -28 -148 -109t-40 -233v-178z" />
<glyph unicode="&#x2019;" horiz-adv-x="491" d="M152 942q108 28 148 109t40 233v178h-188v-217h90v-49q0 -68 -19.5 -101t-70.5 -57v-96z" />
<glyph unicode="&#x201a;" horiz-adv-x="491" d="M152 0h90v-49q0 -68 -19.5 -101t-70.5 -57v-96q108 28 148 109t40 233v178h-188v-217z" />
<glyph unicode="&#x201c;" horiz-adv-x="833" d="M162 942h188v217h-90v49q0 68 19.5 101t70.5 57v96q-108 -28 -148 -109t-40 -233v-178zM483 942h189v217h-90v49q0 68 19.5 101t70.5 57v96q-109 -28 -149 -109t-40 -233v-178z" />
<glyph unicode="&#x201d;" horiz-adv-x="833" d="M162 942q108 28 148 109t40 233v178h-188v-217h90v-49q0 -68 -19.5 -101t-70.5 -57v-96zM483 942q109 28 149 109t40 233v178h-189v-217h90v-49q0 -68 -19.5 -101t-70.5 -57v-96z" />
<glyph unicode="&#x201e;" horiz-adv-x="833" d="M162 0h90v-49q0 -68 -19.5 -101t-70.5 -57v-96q108 28 148 109t40 233v178h-188v-217zM483 0h90v-49q0 -68 -19.5 -101t-70.5 -57v-96q109 28 149 109t40 233v178h-189v-217z" />
<glyph unicode="&#x2022;" horiz-adv-x="1024" d="M147 731q0 -119 64 -206.5t161 -129.5q65 -28 140 -28q119 0 208 63.5t129 160.5q28 68 28 140q0 120 -63.5 208t-161.5 129q-68 28 -140 28q-121 0 -207.5 -63t-128.5 -162q-29 -67 -29 -140z" />
<glyph unicode="&#x2026;" horiz-adv-x="2048" d="M248 0h188v217h-188v-217zM930 0h188v217h-188v-217zM1612 0h188v217h-188v-217z" />
<glyph unicode="&#x202f;" horiz-adv-x="381" />
<glyph unicode="&#x2039;" horiz-adv-x="491" d="M100 502l291 -293v180l-192 193l192 192v180l-291 -292v-160z" />
<glyph unicode="&#x203a;" horiz-adv-x="491" d="M100 209l291 293v160l-291 292v-180l193 -192l-193 -193v-180z" />
<glyph unicode="&#x205f;" horiz-adv-x="477" />
<glyph unicode="&#x2122;" horiz-adv-x="2027" d="M106 1339h273v-721h135v721h266v123h-674v-123zM944 618h135v697h4l285 -697h80l285 697h4v-697h135v844h-201l-260 -647l-266 647h-201v-844z" />
<glyph unicode="&#x25fc;" horiz-adv-x="1095" d="M0 0v1096h1096v-1096h-1096z" />
</font>
</defs>
</svg>
