<?xml version="1.0" encoding="UTF-8"?>
<!DOCTYPE svg PUBLIC "-//W3C//DTD SVG 1.1//EN" "http://www.w3.org/Graphics/SVG/1.1/DTD/svg11.dtd">
<!-- Creator: CorelDRAW X7 -->
<svg xmlns="http://www.w3.org/2000/svg" xml:space="preserve" width="42.3332mm" height="25.3998mm" version="1.1" style="shape-rendering:geometricPrecision; text-rendering:geometricPrecision; image-rendering:optimizeQuality; fill-rule:evenodd; clip-rule:evenodd"
viewBox="0 0 4233 2540"
 xmlns:xlink="http://www.w3.org/1999/xlink">
 <defs>
  <style type="text/css">
   <![CDATA[
    .fil0 {fill:#174D8D}
    .fil1 {fill:#A3BFE0;fill-rule:nonzero}
   ]]>
  </style>
 </defs>
 <g id="Camada_x0020_1">
  <metadata id="CorelCorpID_0Corel-Layer"/>
  <path class="fil0" d="M4140 1613l2 -695 -1960 0c28,8 398,34 459,38 46,4 43,15 97,71 107,109 224,224 329,334l164 167c11,12 75,80 82,83 13,5 774,2 827,2z"/>
  <path class="fil0" d="M2011 1631c43,9 112,13 158,17 268,23 552,38 821,43 55,1 308,8 342,3l-126 -129c-33,-32 -103,-110 -129,-133 -29,-25 -97,-99 -129,-132l-160 -164c-11,-11 -22,-20 -33,-32l-96 -100c-19,-20 -16,-15 -51,-16 -120,-4 -247,-13 -366,-25 -38,-4 -78,-9 -117,-13 -27,-4 -91,-15 -114,-14l0 695z"/>
  <polygon class="fil0" points="3427,192 2741,192 2740,876 3427,877 "/>
  <path class="fil0" d="M3408 2348c-3,-48 -14,-104 -20,-153l-30 -306c-3,-45 -1,-120 -9,-159l-685 -14c5,106 13,215 22,320 9,104 22,208 30,312l692 0z"/>
  <g id="_795631621760">
   <path class="fil0" d="M1233 958l-99 0c-1,122 0,244 0,365 0,46 8,134 -10,169 -48,94 -180,95 -227,4 -19,-38 -11,-124 -11,-173 0,-62 3,-327 -1,-365l-211 -1c-1,33 -3,472 1,500 43,296 508,300 557,2 4,-25 2,-467 1,-501z"/>
   <path class="fil0" d="M109 1556l-1 102c70,1 138,0 207,0 73,0 119,4 177,-30 104,-59 137,-181 104,-286 -29,-93 -68,-115 -164,-146 -25,-9 -56,-16 -80,-24 -56,-21 -61,-101 -4,-122 30,-12 161,-6 204,-6l0 -91c-70,-1 -141,0 -211,0 -72,0 -123,6 -171,42 -36,28 -69,70 -80,133 -20,125 61,210 176,247 61,19 121,14 144,69 28,65 -28,112 -89,112 -70,0 -142,-2 -212,0z"/>
   <path class="fil0" d="M1306 1556l-1 103c70,-1 138,-1 206,-1 74,0 119,4 178,-29 105,-59 137,-181 104,-287 -29,-94 -69,-114 -164,-147 -26,-8 -54,-14 -80,-24 -56,-20 -61,-98 -4,-121 30,-12 162,-6 204,-6l0 -91c-71,0 -141,0 -212,0 -71,0 -122,5 -170,43 -122,93 -124,310 96,378 63,20 119,14 144,69 12,28 5,61 -12,82 -18,21 -38,31 -77,31 -69,0 -144,-3 -212,0z"/>
  </g>
  <path class="fil0" d="M3429 2141c3,-45 1,-461 -5,-473 -6,-8 -76,-3 -89,-3 6,11 22,24 32,34 20,20 16,16 20,52 4,43 8,87 13,130l28 258c0,1 1,2 1,2z"/>
  <path class="fil1" d="M133 1906l0 -111 -36 0 0 -17 96 0 0 17 -36 0 0 111 -24 0zm110 0l0 -128 54 0c11,0 20,2 27,7 7,6 11,14 11,26 0,8 -2,15 -6,21 -5,6 -11,9 -19,10l0 1c15,1 23,10 24,26 0,6 0,15 1,26 0,5 2,9 7,11l-28 0c-2,-2 -3,-6 -4,-11 0,-2 0,-10 -1,-25 0,-7 -2,-12 -5,-15 -3,-3 -9,-5 -17,-5l-19 0 0 56 -25 0zm25 -71l19 0c8,0 13,-2 18,-6 4,-4 6,-9 6,-15 0,-14 -8,-21 -23,-21l-20 0 0 42zm151 23l36 0 -17 -63 -1 0 -18 63zm-39 48l43 -128 31 0 40 128 -26 0 -9 -31 -44 0 -10 31 -25 0zm161 0l0 -128 30 0 44 95 0 0 0 -95 23 0 0 128 -30 0 -44 -98 0 0 0 98 -23 0zm153 -40l24 0 0 4c0,15 9,23 25,23 7,0 13,-2 17,-6 4,-3 6,-7 6,-13 0,-6 -2,-11 -6,-15 -3,-3 -8,-5 -16,-7l-16 -5c-11,-4 -19,-8 -24,-13 -5,-6 -8,-13 -8,-23 0,-11 5,-20 13,-26 9,-7 20,-10 34,-10 29,0 43,11 43,34l0 3 -24 0 0 -3c0,-12 -7,-19 -21,-19 -14,0 -21,7 -21,19 0,5 2,10 6,13 3,3 9,6 17,9l16 5c11,3 19,8 24,13 5,5 7,12 7,21 0,26 -17,39 -50,39 -17,0 -29,-5 -37,-13 -6,-7 -9,-16 -9,-27l0 -3zm177 -73l0 44 17 0c16,0 24,-7 24,-22 0,-15 -9,-22 -26,-22l-15 0zm-24 113l0 -128 47 0c14,0 25,3 32,10 7,6 10,15 10,27 0,12 -4,21 -11,28 -8,7 -19,10 -33,10l-21 0 0 53 -24 0zm160 -48l35 0 -17 -63 0 0 -18 63zm-40 48l43 -128 31 0 40 128 -25 0 -9 -31 -45 0 -9 31 -26 0zm162 0l0 -128 53 0c11,0 20,2 27,7 8,6 11,14 11,26 0,8 -2,15 -6,21 -5,6 -11,9 -19,10l0 1c15,1 23,10 24,26 0,6 0,15 1,26 0,5 2,9 7,11l-27 0c-2,-2 -4,-6 -4,-11 -1,-2 -1,-10 -1,-25 -1,-7 -3,-12 -6,-15 -3,-3 -8,-5 -17,-5l-19 0 0 56 -24 0zm24 -71l19 0c8,0 14,-2 18,-6 4,-4 6,-9 6,-15 0,-14 -7,-21 -23,-21l-20 0 0 42zm126 71l0 -128 82 0 0 17 -57 0 0 35 54 0 0 18 -54 0 0 41 59 0 0 17 -84 0zm139 0l0 -128 30 0 44 95 0 0 0 -95 23 0 0 128 -30 0 -44 -98 0 0 0 98 -23 0zm184 0l0 -111 -36 0 0 -17 95 0 0 17 -35 0 0 111 -24 0zm110 0l0 -128 82 0 0 17 -58 0 0 35 54 0 0 18 -54 0 0 41 59 0 0 17 -83 0z"/>
 </g>
</svg>
