<?xml version="1.0" encoding="UTF-8"?>
<!DOCTYPE svg PUBLIC "-//W3C//DTD SVG 1.1//EN" "http://www.w3.org/Graphics/SVG/1.1/DTD/svg11.dtd">
<!-- Creator: CorelDRAW X7 -->
<svg xmlns="http://www.w3.org/2000/svg" xml:space="preserve" width="42.3332mm" height="25.3998mm" version="1.1" style="shape-rendering:geometricPrecision; text-rendering:geometricPrecision; image-rendering:optimizeQuality; fill-rule:evenodd; clip-rule:evenodd"
viewBox="0 0 4233 2540"
 xmlns:xlink="http://www.w3.org/1999/xlink">
 <defs>
  <style type="text/css">
   <![CDATA[
    .fil0 {fill:#174D8D}
   ]]>
  </style>
 </defs>
 <g id="Camada_x0020_1">
  <metadata id="CorelCorpID_0Corel-Layer"/>
  <g id="_976167753872">
   <path class="fil0" d="M4140 1613l2 -695 -1960 0c28,8 398,34 459,38 46,4 43,15 97,71 107,109 224,224 329,334l164 167c11,12 75,80 82,83 13,5 774,2 827,2z"/>
   <path class="fil0" d="M2011 1631c43,9 112,13 158,17 268,23 552,38 821,43 55,1 308,8 342,3l-126 -129c-33,-32 -103,-110 -129,-133 -29,-25 -97,-99 -129,-132l-160 -164c-11,-11 -22,-20 -33,-32l-96 -100c-19,-20 -16,-15 -51,-16 -120,-4 -247,-13 -366,-25 -38,-4 -78,-9 -117,-13 -27,-4 -91,-15 -114,-14l0 695z"/>
   <polygon class="fil0" points="3427,192 2741,192 2740,876 3427,877 "/>
   <path class="fil0" d="M3408 2348c-3,-48 -14,-104 -20,-153l-30 -306c-3,-45 -1,-120 -9,-159l-685 -14c5,106 13,215 22,320 9,104 22,208 30,312l692 0z"/>
   <path class="fil0" d="M1238 958l-99 0c-1,122 0,244 0,365 0,46 7,134 -10,169 -49,94 -181,95 -227,4 -19,-38 -11,-124 -11,-173 0,-62 3,-327 -1,-365l-212 -1c0,33 -3,472 1,500 43,296 508,300 558,2 4,-25 1,-467 1,-501z"/>
   <path class="fil0" d="M113 1556l0 102c70,1 138,0 206,0 74,0 119,4 178,-30 104,-59 137,-181 104,-286 -30,-93 -69,-115 -164,-146 -26,-9 -56,-16 -81,-24 -56,-21 -60,-101 -3,-122 30,-12 161,-6 203,-6l0 -91c-70,-1 -141,0 -211,0 -71,0 -122,6 -171,42 -36,28 -69,70 -79,133 -21,125 61,210 176,247 61,19 120,14 143,69 28,65 -27,112 -88,112 -71,0 -143,-2 -213,0z"/>
   <path class="fil0" d="M1310 1556l0 103c69,-1 138,-1 206,-1 74,0 118,4 178,-29 104,-59 136,-181 104,-287 -30,-94 -69,-114 -164,-147 -26,-8 -55,-14 -81,-24 -55,-20 -61,-98 -3,-121 30,-12 161,-6 204,-6l0 -91c-71,0 -142,0 -212,0 -72,0 -122,5 -171,43 -121,93 -123,310 97,378 63,20 119,14 143,69 13,28 6,61 -11,82 -19,21 -38,31 -78,31 -68,0 -144,-3 -212,0z"/>
   <path class="fil0" d="M3429 2141c3,-45 1,-461 -5,-473 -6,-8 -76,-3 -89,-3 6,11 22,24 32,34 20,20 16,16 20,52 4,43 8,87 13,130l28 258c0,1 1,2 1,2z"/>
  </g>
 </g>
</svg>
